<svg xmlns="http://www.w3.org/2000/svg" xmlns:v="https://svgstorm.com" viewBox="0 0 1024 1024" width="1024" height="1024">
<g fill="None" fill-opacity="0.0" stroke="#FEFEFF" stroke-opacity="1.00" stroke-width="0.3">
</g>
<g fill="None" fill-opacity="0.0" stroke="#31B3B8" stroke-opacity="1.00" stroke-width="0.3"><path d="
M 232.00 497.00 
C 250.52 497.75 271.66 496.00 291.00 496.00
C 292.41 495.73 293.98 493.44 296.00 493.00
C 292.87 490.84 295.85 486.39 295.00 484.00
C 297.16 483.49 301.54 483.07 299.00 480.00
C 302.15 482.25 303.80 477.21 301.00 476.00
C 306.39 475.61 307.82 470.52 313.00 471.00
C 312.42 468.78 308.01 465.32 313.00 466.00
C 311.79 463.69 312.56 461.31 313.00 459.00
C 316.70 458.28 312.46 463.52 315.71 462.64 C 318.96 461.75 319.57 459.66 317.00 458.00
C 322.23 459.12 322.00 456.42 320.00 453.00
C 322.58 451.52 323.52 453.23 325.00 455.00
C 324.94 449.64 328.08 451.94 328.00 455.00
C 332.44 450.64 328.03 447.29 331.00 444.00
C 331.91 447.90 334.01 445.61 337.00 445.00
C 336.19 442.96 333.73 442.03 333.00 440.00
C 336.72 441.53 342.68 439.96 336.00 438.00
C 338.37 436.85 340.30 438.30 343.00 438.00
C 339.18 436.41 340.89 435.49 344.00 435.00
C 340.66 433.30 343.59 432.40 344.00 430.00
C 335.22 433.83 346.07 424.66 346.00 433.00
C 349.34 431.17 347.59 428.54 348.00 427.00
C 347.07 424.45 350.75 427.50 351.00 429.00
C 355.38 422.44 345.66 425.45 346.00 420.00
C 349.51 420.81 350.09 419.47 354.00 421.00
C 352.65 415.91 358.08 416.34 355.00 412.00
C 357.77 410.22 364.26 408.96 361.00 414.00
C 363.73 412.43 363.25 410.79 367.00 413.00
C 367.72 407.97 368.00 409.77 368.00 403.00
C 370.53 403.80 373.17 401.15 375.00 405.00
C 379.25 401.97 370.40 402.50 374.27 400.25 C 378.13 397.99 375.32 399.06 373.00 398.00
C 375.21 394.73 379.96 396.91 382.00 396.00
C 380.35 394.59 377.35 395.15 377.00 392.00
C 380.45 388.82 380.59 387.18 386.00 388.00
C 384.24 386.30 383.54 384.31 386.00 381.00
C 388.38 389.11 392.72 379.24 399.00 380.00
C 395.77 378.05 397.34 376.25 399.00 372.00
C 403.34 373.85 401.35 370.29 399.00 369.00
C 402.16 367.45 403.91 368.88 408.00 366.00
C 405.05 364.50 404.94 360.04 408.00 364.00
C 406.90 360.25 411.05 362.84 410.00 359.00
C 413.42 362.36 415.69 358.13 419.00 357.00
C 416.82 355.81 412.98 359.94 413.00 356.00
C 423.89 352.84 430.68 343.47 439.00 335.00
C 432.30 339.75 441.42 328.95 444.30 327.29 C 447.19 325.62 449.99 314.45 456.00 317.00
C 454.71 313.85 456.23 313.67 458.00 316.00
C 457.80 311.09 462.73 311.99 465.00 307.00
C 467.80 311.40 470.98 303.48 473.00 308.00
C 473.94 306.15 474.28 303.19 471.00 304.00
C 473.86 303.06 473.49 299.78 475.00 298.00
C 475.54 300.46 474.95 303.77 479.00 303.00
C 475.53 300.84 476.49 295.42 479.00 301.00
C 479.34 297.86 481.78 295.93 484.00 294.00
C 483.51 296.70 483.19 298.62 485.00 301.00
C 489.19 299.18 484.46 296.79 489.00 297.00
C 488.14 293.54 484.79 292.45 489.00 291.00
C 480.46 282.79 474.07 277.94 465.92 271.08 C 457.77 264.22 447.55 258.87 438.26 253.74 C 428.96 248.62 414.53 244.42 407.00 241.00
C 393.98 237.67 377.63 235.30 363.00 236.00 C 348.37 236.70 333.19 239.09 320.22 243.22 C 307.26 247.35 296.82 252.12 285.70 258.70 C 274.57 265.28 266.37 271.36 256.75 279.75 C 247.13 288.14 241.37 296.85 233.75 306.75 C 226.14 316.66 221.15 327.27 215.92 338.92 C 210.70 350.58 206.78 364.95 204.99 377.99 C 203.20 391.04 201.64 412.31 204.00 425.00 C 206.36 437.69 207.57 455.78 213.23 465.77 C 218.89 475.76 220.99 495.50 232.00 497.00 Z" data-index="1"></path>
</g>
<g fill="None" fill-opacity="0.0" stroke="#32AAC1" stroke-opacity="1.00" stroke-width="0.3"><path d="
M 407.00 241.00 
C 414.53 244.42 428.96 248.62 438.26 253.74 C 447.55 258.87 457.77 264.22 465.92 271.08 C 474.07 277.94 480.46 282.79 489.00 291.00
C 484.79 292.45 488.14 293.54 489.00 297.00
C 484.46 296.79 489.19 299.18 485.00 301.00
C 483.19 298.62 483.51 296.70 484.00 294.00
C 481.78 295.93 479.34 297.86 479.00 301.00
C 476.49 295.42 475.53 300.84 479.00 303.00
C 474.95 303.77 475.54 300.46 475.00 298.00
C 473.49 299.78 473.86 303.06 471.00 304.00
C 474.28 303.19 473.94 306.15 473.00 308.00
C 470.98 303.48 467.80 311.40 465.00 307.00
C 462.73 311.99 457.80 311.09 458.00 316.00
C 456.23 313.67 454.71 313.85 456.00 317.00
C 449.99 314.45 447.19 325.62 444.30 327.29 C 441.42 328.95 432.30 339.75 439.00 335.00
C 430.68 343.47 423.89 352.84 413.00 356.00
C 412.98 359.94 416.82 355.81 419.00 357.00
C 415.69 358.13 413.42 362.36 410.00 359.00
C 411.05 362.84 406.90 360.25 408.00 364.00
C 404.94 360.04 405.05 364.50 408.00 366.00
C 403.91 368.88 402.16 367.45 399.00 369.00
C 401.35 370.29 403.34 373.85 399.00 372.00
C 397.34 376.25 395.77 378.05 399.00 380.00
C 392.72 379.24 388.38 389.11 386.00 381.00
C 383.54 384.31 384.24 386.30 386.00 388.00
C 380.59 387.18 380.45 388.82 377.00 392.00
C 377.35 395.15 380.35 394.59 382.00 396.00
C 379.96 396.91 375.21 394.73 373.00 398.00
C 375.32 399.06 378.13 397.99 374.27 400.25 C 370.40 402.50 379.25 401.97 375.00 405.00
C 373.17 401.15 370.53 403.80 368.00 403.00
C 368.00 409.77 367.72 407.97 367.00 413.00
C 363.25 410.79 363.73 412.43 361.00 414.00
C 364.26 408.96 357.77 410.22 355.00 412.00
C 358.08 416.34 352.65 415.91 354.00 421.00
C 350.09 419.47 349.51 420.81 346.00 420.00
C 345.66 425.45 355.38 422.44 351.00 429.00
C 350.75 427.50 347.07 424.45 348.00 427.00
C 347.59 428.54 349.34 431.17 346.00 433.00
C 346.07 424.66 335.22 433.83 344.00 430.00
C 343.59 432.40 340.66 433.30 344.00 435.00
C 340.89 435.49 339.18 436.41 343.00 438.00
C 340.30 438.30 338.37 436.85 336.00 438.00
C 342.68 439.96 336.72 441.53 333.00 440.00
C 333.73 442.03 336.19 442.96 337.00 445.00
C 334.01 445.61 331.91 447.90 331.00 444.00
C 328.03 447.29 332.44 450.64 328.00 455.00
C 328.08 451.94 324.94 449.64 325.00 455.00
C 323.52 453.23 322.58 451.52 320.00 453.00
C 322.00 456.42 322.23 459.12 317.00 458.00
C 319.57 459.66 318.96 461.75 315.71 462.64 C 312.46 463.52 316.70 458.28 313.00 459.00
C 312.56 461.31 311.79 463.69 313.00 466.00
C 308.01 465.32 312.42 468.78 313.00 471.00
C 307.82 470.52 306.39 475.61 301.00 476.00
C 303.80 477.21 302.15 482.25 299.00 480.00
C 301.54 483.07 297.16 483.49 295.00 484.00
C 295.85 486.39 292.87 490.84 296.00 493.00
C 293.98 493.44 292.41 495.73 291.00 496.00
C 305.75 496.00 321.34 496.01 336.00 496.00 C 350.66 495.99 367.75 496.02 382.00 496.00 C 396.25 495.98 396.65 479.91 401.92 469.92 C 407.20 459.93 410.10 447.64 416.00 438.00
C 423.85 425.18 427.82 408.49 435.02 395.03 C 442.23 381.56 443.27 364.95 456.00 355.00
C 460.01 351.86 467.34 350.16 473.00 352.00 C 478.66 353.84 480.52 354.96 483.92 361.08 C 487.32 367.20 486.75 367.40 489.98 376.02 C 493.20 384.65 497.60 396.42 500.78 405.22 C 503.96 414.03 507.55 408.27 510.00 413.00
C 511.91 408.09 512.93 411.96 515.00 413.00
C 514.09 409.31 515.02 405.76 516.00 402.00
C 516.77 405.10 518.84 410.57 518.00 404.00
C 521.98 407.51 523.38 401.52 528.00 402.00
C 524.98 399.58 527.31 398.41 531.00 397.00
C 528.06 396.26 525.50 398.90 524.00 396.00
C 526.48 396.07 528.24 393.63 531.00 395.00
C 530.46 392.19 531.88 389.85 534.00 394.00
C 538.70 390.16 541.65 382.88 546.00 378.00
C 543.95 382.70 551.68 386.19 551.00 380.00
C 549.42 383.55 546.72 378.22 548.00 376.00
C 550.61 380.38 550.14 373.84 554.00 377.00
C 555.30 372.44 558.16 372.86 560.00 375.00
C 562.11 369.04 572.90 368.43 568.00 361.00
C 571.18 363.89 573.53 360.77 578.00 363.00
C 576.45 358.22 590.45 355.81 585.00 350.00
C 589.65 349.90 589.39 347.38 594.00 349.00
C 593.25 346.09 593.90 344.10 594.00 341.00
C 595.60 342.82 599.35 345.00 597.00 348.00
C 599.96 345.74 600.42 342.83 603.00 348.00
C 600.93 342.23 606.46 340.77 609.00 336.00
C 610.88 339.55 615.11 335.57 618.00 335.00
C 612.99 331.50 621.14 333.86 618.00 330.00
C 621.29 331.31 623.93 330.11 623.00 326.00
C 625.48 328.88 626.52 326.94 629.00 326.00
C 623.04 323.16 632.11 324.55 634.68 321.68 C 637.25 318.81 640.38 317.11 640.00 312.00
C 643.30 315.33 643.46 309.74 643.00 307.00
C 647.30 309.33 648.12 310.93 646.00 305.00
C 648.46 307.47 650.71 310.51 649.00 305.00
C 651.91 308.04 654.97 305.74 655.00 302.00
C 656.42 305.47 654.87 307.50 658.00 309.00
C 658.68 303.16 658.45 303.27 662.00 301.00
C 658.84 299.12 655.55 301.77 653.00 299.00
C 655.00 298.36 657.52 298.43 660.00 297.00
C 659.82 299.81 663.11 297.15 664.00 300.00
C 667.27 297.24 663.92 292.87 667.00 290.00
C 667.19 294.24 669.11 294.74 670.00 290.00
C 672.12 291.73 672.34 292.69 675.00 293.00
C 671.37 284.18 684.03 285.60 683.00 277.00
C 684.31 278.72 686.41 280.39 689.00 280.00
C 686.60 277.25 686.01 275.60 688.00 273.00
C 689.93 273.65 690.85 276.91 693.00 275.00
C 690.27 272.88 692.05 271.06 695.00 271.00
C 696.06 273.63 692.74 275.26 694.00 279.00
C 695.53 276.91 697.36 275.44 697.00 272.00
C 700.47 272.88 702.08 269.00 703.00 265.00
C 705.90 265.51 703.05 268.49 706.00 269.00
C 704.90 263.17 708.69 267.67 712.00 266.00
C 710.85 263.60 711.13 260.22 714.00 259.00
C 712.71 261.50 714.25 262.38 716.00 264.00
C 718.20 262.28 720.22 260.62 718.00 256.00
C 722.39 261.80 722.57 256.15 727.00 253.00
C 712.98 246.44 696.89 243.06 683.00 238.00
C 660.43 234.56 629.71 236.42 609.07 242.07 C 588.44 247.73 571.87 260.99 555.25 270.25 C 538.62 279.50 527.34 308.80 507.68 303.32 C 488.02 297.84 479.90 276.81 462.25 266.75 C 444.59 256.70 427.09 246.13 407.00 241.00 Z" data-index="2"></path>
</g>
<g fill="None" fill-opacity="0.0" stroke="#33A3C8" stroke-opacity="1.00" stroke-width="0.3"><path d="
M 456.00 355.00 
C 477.92 343.17 487.28 368.98 492.02 384.98 C 496.77 400.97 504.21 420.30 510.00 436.00
C 516.08 446.52 520.22 464.49 525.00 478.00
C 526.37 475.42 529.37 477.54 531.00 480.00
C 532.17 478.55 533.05 475.78 532.00 474.00
C 536.41 473.79 530.45 480.66 536.00 480.00
C 534.60 475.80 536.37 471.35 540.00 470.00
C 538.71 467.38 535.02 470.03 536.00 466.00
C 538.05 468.28 541.83 466.00 541.00 470.00
C 546.01 471.03 545.01 465.10 545.00 462.00
C 547.08 466.09 546.13 463.46 548.00 461.00
C 550.58 462.44 547.23 465.23 549.00 467.00
C 551.30 464.67 551.34 458.55 555.00 461.00
C 551.15 455.68 568.29 457.85 560.00 454.00
C 567.50 456.03 570.95 442.75 578.00 445.00
C 578.26 442.56 579.76 440.48 580.00 438.00
C 581.51 445.89 586.38 437.76 588.00 434.00
C 589.66 437.71 592.22 433.13 593.00 431.00
C 595.57 434.19 595.84 430.56 599.00 431.00
C 595.31 433.56 599.95 432.74 602.00 432.00
C 600.07 431.11 599.81 427.67 597.00 428.00
C 599.70 426.94 602.90 424.72 606.00 426.00
C 602.67 429.65 606.04 428.36 609.00 428.00
C 607.47 423.92 605.83 421.54 612.00 424.00
C 610.10 421.82 608.42 419.34 605.00 420.00
C 608.20 419.23 609.50 414.16 611.00 419.00
C 612.16 415.81 613.12 413.78 615.00 418.00
C 616.89 415.50 613.36 414.28 615.00 412.00
C 618.99 410.56 624.11 414.89 627.00 409.00
C 623.75 409.11 622.61 412.30 623.00 407.00
C 626.31 409.82 624.61 404.25 628.00 407.00
C 627.09 403.86 627.95 403.55 629.00 401.00
C 631.58 403.33 627.82 406.88 629.00 410.00
C 631.31 409.90 629.88 404.92 634.00 408.00
C 628.56 403.60 635.56 405.72 635.00 399.00
C 638.03 399.46 638.88 402.24 642.00 402.00
C 640.85 400.10 639.34 399.57 641.00 396.00
C 642.92 399.88 643.43 394.79 646.00 395.00
C 643.61 393.50 644.25 390.14 644.00 387.00
C 647.39 387.39 643.22 391.40 647.00 391.00
C 647.53 388.89 650.16 383.45 651.00 389.00
C 657.40 388.16 661.40 383.99 669.00 381.00
C 667.29 376.12 674.10 376.53 677.00 378.00
C 675.65 376.11 673.74 375.33 672.00 374.00
C 678.96 375.57 678.79 369.34 672.00 373.00
C 677.12 368.64 681.73 368.86 677.00 363.00
C 678.76 364.95 681.00 365.41 682.00 368.00
C 683.71 368.43 682.15 363.97 685.75 364.41 C 689.34 364.84 689.81 361.63 691.00 359.00
C 695.35 362.41 699.97 351.10 701.00 347.00
C 703.50 349.42 701.45 350.75 706.00 351.00
C 706.70 349.07 707.17 347.09 706.00 345.00
C 709.61 344.97 709.90 347.27 712.00 348.00
C 710.60 343.48 712.23 344.37 716.00 345.00
C 717.21 342.98 718.45 341.45 720.00 340.00
C 717.62 338.42 715.12 340.84 713.00 338.00
C 714.98 336.46 720.16 339.11 720.00 334.00
C 722.07 338.04 724.31 332.70 725.00 330.00
C 728.39 330.39 724.22 334.40 728.00 334.00
C 728.16 332.03 731.30 330.36 734.00 330.00
C 732.48 324.50 736.86 327.05 739.00 329.00
C 736.51 323.14 744.97 323.35 742.00 319.00
C 745.33 321.64 746.70 319.18 750.00 318.00
C 745.61 315.22 752.59 317.36 752.00 314.00
C 754.89 317.81 753.81 314.24 759.00 314.00
C 759.18 310.78 755.83 313.40 754.00 312.00
C 757.37 308.49 760.39 311.16 762.00 313.00
C 761.67 307.45 775.42 303.86 767.00 302.00
C 772.13 301.61 779.72 298.73 782.00 302.00
C 780.99 295.83 784.48 301.81 785.00 298.00
C 759.67 265.92 722.33 244.00 683.00 238.00
C 696.89 243.06 712.98 246.44 727.00 253.00
C 722.57 256.15 722.39 261.80 718.00 256.00
C 720.22 260.62 718.20 262.28 716.00 264.00
C 714.25 262.38 712.71 261.50 714.00 259.00
C 711.13 260.22 710.85 263.60 712.00 266.00
C 708.69 267.67 704.90 263.17 706.00 269.00
C 703.05 268.49 705.90 265.51 703.00 265.00
C 702.08 269.00 700.47 272.88 697.00 272.00
C 697.36 275.44 695.53 276.91 694.00 279.00
C 692.74 275.26 696.06 273.63 695.00 271.00
C 692.05 271.06 690.27 272.88 693.00 275.00
C 690.85 276.91 689.93 273.65 688.00 273.00
C 686.01 275.60 686.60 277.25 689.00 280.00
C 686.41 280.39 684.31 278.72 683.00 277.00
C 684.03 285.60 671.37 284.18 675.00 293.00
C 672.34 292.69 672.12 291.73 670.00 290.00
C 669.11 294.74 667.19 294.24 667.00 290.00
C 663.92 292.87 667.27 297.24 664.00 300.00
C 663.11 297.15 659.82 299.81 660.00 297.00
C 657.52 298.43 655.00 298.36 653.00 299.00
C 655.55 301.77 658.84 299.12 662.00 301.00
C 658.45 303.27 658.68 303.16 658.00 309.00
C 654.87 307.50 656.42 305.47 655.00 302.00
C 654.97 305.74 651.91 308.04 649.00 305.00
C 650.71 310.51 648.46 307.47 646.00 305.00
C 648.12 310.93 647.30 309.33 643.00 307.00
C 643.46 309.74 643.30 315.33 640.00 312.00
C 640.38 317.11 637.25 318.81 634.68 321.68 C 632.11 324.55 623.04 323.16 629.00 326.00
C 626.52 326.94 625.48 328.88 623.00 326.00
C 623.93 330.11 621.29 331.31 618.00 330.00
C 621.14 333.86 612.99 331.50 618.00 335.00
C 615.11 335.57 610.88 339.55 609.00 336.00
C 606.46 340.77 600.93 342.23 603.00 348.00
C 600.42 342.83 599.96 345.74 597.00 348.00
C 599.35 345.00 595.60 342.82 594.00 341.00
C 593.90 344.10 593.25 346.09 594.00 349.00
C 589.39 347.38 589.65 349.90 585.00 350.00
C 590.45 355.81 576.45 358.22 578.00 363.00
C 573.53 360.77 571.18 363.89 568.00 361.00
C 572.90 368.43 562.11 369.04 560.00 375.00
C 558.16 372.86 555.30 372.44 554.00 377.00
C 550.14 373.84 550.61 380.38 548.00 376.00
C 546.72 378.22 549.42 383.55 551.00 380.00
C 551.68 386.19 543.95 382.70 546.00 378.00
C 541.65 382.88 538.70 390.16 534.00 394.00
C 531.88 389.85 530.46 392.19 531.00 395.00
C 528.24 393.63 526.48 396.07 524.00 396.00
C 525.50 398.90 528.06 396.26 531.00 397.00
C 527.31 398.41 524.98 399.58 528.00 402.00
C 523.38 401.52 521.98 407.51 518.00 404.00
C 518.84 410.57 516.77 405.10 516.00 402.00
C 515.02 405.76 514.09 409.31 515.00 413.00
C 512.93 411.96 511.91 408.09 510.00 413.00
C 507.55 408.27 503.96 414.03 500.78 405.22 C 497.60 396.42 493.20 384.65 489.98 376.02 C 486.75 367.40 487.32 367.20 483.92 361.08 C 480.52 354.96 478.66 353.84 473.00 352.00 C 467.34 350.16 460.01 351.86 456.00 355.00 Z" data-index="3"></path>
</g>
<g fill="None" fill-opacity="0.0" stroke="#339CCF" stroke-opacity="1.00" stroke-width="0.3"><path d="
M 510.00 436.00 
C 526.54 484.75 541.42 534.90 561.00 582.00
C 574.23 558.62 581.98 531.35 597.00 509.00
C 600.46 500.21 609.03 492.39 621.00 492.00 C 632.98 491.61 650.88 492.32 664.00 492.00 C 677.12 491.68 693.55 492.48 707.00 492.00 C 720.45 491.52 736.80 492.95 750.00 492.00 C 763.20 491.05 780.80 494.05 793.00 492.00 C 805.20 489.95 803.80 475.14 809.78 465.78 C 815.75 456.42 814.98 442.34 818.00 431.00 C 821.02 419.66 819.79 403.16 819.07 390.93 C 818.36 378.70 815.38 364.84 814.00 354.00
C 808.37 333.82 798.11 314.61 785.00 298.00
C 784.48 301.81 780.99 295.83 782.00 302.00
C 779.72 298.73 772.13 301.61 767.00 302.00
C 775.42 303.86 761.67 307.45 762.00 313.00
C 760.39 311.16 757.37 308.49 754.00 312.00
C 755.83 313.40 759.18 310.78 759.00 314.00
C 753.81 314.24 754.89 317.81 752.00 314.00
C 752.59 317.36 745.61 315.22 750.00 318.00
C 746.70 319.18 745.33 321.64 742.00 319.00
C 744.97 323.35 736.51 323.14 739.00 329.00
C 736.86 327.05 732.48 324.50 734.00 330.00
C 731.30 330.36 728.16 332.03 728.00 334.00
C 724.22 334.40 728.39 330.39 725.00 330.00
C 724.31 332.70 722.07 338.04 720.00 334.00
C 720.16 339.11 714.98 336.46 713.00 338.00
C 715.12 340.84 717.62 338.42 720.00 340.00
C 718.45 341.45 717.21 342.98 716.00 345.00
C 712.23 344.37 710.60 343.48 712.00 348.00
C 709.90 347.27 709.61 344.97 706.00 345.00
C 707.17 347.09 706.70 349.07 706.00 351.00
C 701.45 350.75 703.50 349.42 701.00 347.00
C 699.97 351.10 695.35 362.41 691.00 359.00
C 689.81 361.63 689.34 364.84 685.75 364.41 C 682.15 363.97 683.71 368.43 682.00 368.00
C 681.00 365.41 678.76 364.95 677.00 363.00
C 681.73 368.86 677.12 368.64 672.00 373.00
C 678.79 369.34 678.96 375.57 672.00 374.00
C 673.74 375.33 675.65 376.11 677.00 378.00
C 674.10 376.53 667.29 376.12 669.00 381.00
C 661.40 383.99 657.40 388.16 651.00 389.00
C 650.16 383.45 647.53 388.89 647.00 391.00
C 643.22 391.40 647.39 387.39 644.00 387.00
C 644.25 390.14 643.61 393.50 646.00 395.00
C 643.43 394.79 642.92 399.88 641.00 396.00
C 639.34 399.57 640.85 400.10 642.00 402.00
C 638.88 402.24 638.03 399.46 635.00 399.00
C 635.56 405.72 628.56 403.60 634.00 408.00
C 629.88 404.92 631.31 409.90 629.00 410.00
C 627.82 406.88 631.58 403.33 629.00 401.00
C 627.95 403.55 627.09 403.86 628.00 407.00
C 624.61 404.25 626.31 409.82 623.00 407.00
C 622.61 412.30 623.75 409.11 627.00 409.00
C 624.11 414.89 618.99 410.56 615.00 412.00
C 613.36 414.28 616.89 415.50 615.00 418.00
C 613.12 413.78 612.16 415.81 611.00 419.00
C 609.50 414.16 608.20 419.23 605.00 420.00
C 608.42 419.34 610.10 421.82 612.00 424.00
C 605.83 421.54 607.47 423.92 609.00 428.00
C 606.04 428.36 602.67 429.65 606.00 426.00
C 602.90 424.72 599.70 426.94 597.00 428.00
C 599.81 427.67 600.07 431.11 602.00 432.00
C 599.95 432.74 595.31 433.56 599.00 431.00
C 595.84 430.56 595.57 434.19 593.00 431.00
C 592.22 433.13 589.66 437.71 588.00 434.00
C 586.38 437.76 581.51 445.89 580.00 438.00
C 579.76 440.48 578.26 442.56 578.00 445.00
C 570.95 442.75 567.50 456.03 560.00 454.00
C 568.29 457.85 551.15 455.68 555.00 461.00
C 551.34 458.55 551.30 464.67 549.00 467.00
C 547.23 465.23 550.58 462.44 548.00 461.00
C 546.13 463.46 547.08 466.09 545.00 462.00
C 545.01 465.10 546.01 471.03 541.00 470.00
C 541.83 466.00 538.05 468.28 536.00 466.00
C 535.02 470.03 538.71 467.38 540.00 470.00
C 536.37 471.35 534.60 475.80 536.00 480.00
C 530.45 480.66 536.41 473.79 532.00 474.00
C 533.05 475.78 532.17 478.55 531.00 480.00
C 529.37 477.54 526.37 475.42 525.00 478.00
C 520.22 464.49 516.08 446.52 510.00 436.00 Z" data-index="4"></path>
</g>
<g fill="None" fill-opacity="0.0" stroke="#147EC7" stroke-opacity="1.00" stroke-width="0.3"><path d="
M 597.00 509.00 
C 602.05 501.48 607.22 495.88 616.98 493.98 C 626.74 492.07 640.07 493.20 651.00 493.00 C 661.93 492.80 674.68 493.04 686.00 493.00 C 697.32 492.96 709.53 492.90 721.00 493.00 C 732.47 493.10 744.50 492.70 756.00 493.00 C 767.50 493.30 779.59 492.29 791.00 493.00 C 802.41 493.71 802.96 482.49 807.23 474.23 C 811.50 465.97 813.85 457.47 816.22 448.22 C 818.59 438.97 821.00 428.09 821.00 418.00
C 821.00 411.00 821.00 404.00 821.00 397.00
C 821.00 381.92 817.91 368.01 814.00 354.00
C 815.38 364.84 818.36 378.70 819.07 390.93 C 819.79 403.16 821.02 419.66 818.00 431.00 C 814.98 442.34 815.75 456.42 809.78 465.78 C 803.80 475.14 805.20 489.95 793.00 492.00 C 780.80 494.05 763.20 491.05 750.00 492.00 C 736.80 492.95 720.45 491.52 707.00 492.00 C 693.55 492.48 677.12 491.68 664.00 492.00 C 650.88 492.32 632.98 491.61 621.00 492.00 C 609.03 492.39 600.46 500.21 597.00 509.00 Z" data-index="5"></path>
</g>
<g fill="None" fill-opacity="0.0" stroke="#76BBE1" stroke-opacity="1.00" stroke-width="0.3"><path d="
M 821.00 418.00 
C 821.63 411.46 821.64 403.61 821.00 397.00
C 821.00 404.00 821.00 411.00 821.00 418.00 Z" data-index="6"></path>
</g>
<g fill="None" fill-opacity="0.0" stroke="#33A1CB" stroke-opacity="1.00" stroke-width="0.3"><path d="
M 374.00 536.00 
C 374.04 536.00 374.00 537.00 374.00 537.00
C 369.78 541.36 358.40 536.69 352.00 538.00 C 345.60 539.31 336.11 537.41 329.00 538.00 C 321.89 538.59 313.46 537.73 306.00 538.00 C 298.54 538.27 290.67 537.86 283.00 538.00 C 275.33 538.14 266.76 537.90 259.00 538.00
C 288.11 570.39 321.01 600.24 351.00 632.00
C 365.08 646.08 379.96 659.96 394.00 674.00
C 395.36 674.30 395.97 671.84 398.00 672.00
C 400.47 675.47 399.82 678.99 405.00 680.00
C 405.85 676.95 411.93 676.70 409.00 673.00
C 413.81 671.21 415.62 675.06 420.00 675.00
C 420.63 672.35 415.74 671.48 418.00 669.00
C 420.94 672.53 422.83 669.16 421.00 675.00
C 424.64 674.97 424.02 672.65 426.00 671.00
C 423.48 671.16 423.32 666.69 420.00 668.00
C 422.08 665.57 422.70 661.98 427.00 665.00
C 426.02 662.13 428.03 657.69 429.00 655.00
C 431.28 657.64 424.94 666.22 431.00 665.00
C 426.35 659.84 435.07 663.81 434.00 658.00
C 433.80 663.05 441.74 656.58 438.00 655.00
C 443.39 653.03 444.62 652.23 451.00 652.00
C 446.56 649.70 452.23 643.89 456.00 646.00
C 456.79 643.88 456.85 641.70 457.00 639.00
C 459.43 639.15 462.76 637.47 463.00 635.00
C 464.86 635.51 465.70 638.72 466.00 634.00
C 467.49 637.54 469.53 634.18 472.00 634.00
C 471.01 631.63 472.55 628.68 471.00 626.00
C 473.80 624.28 476.60 623.10 480.00 624.00
C 477.60 620.73 479.98 619.99 483.00 621.00
C 477.13 617.17 485.93 617.93 482.00 614.00
C 484.80 613.51 487.83 616.31 488.00 619.00
C 490.48 617.91 487.11 612.60 491.00 613.00
C 491.37 614.97 492.85 615.86 492.00 618.00
C 495.68 619.05 496.73 613.11 493.00 615.00
C 491.49 610.40 495.48 603.11 500.00 608.00
C 501.57 602.87 502.14 605.45 504.00 607.00
C 502.23 601.41 508.56 602.00 511.00 604.00
C 510.88 600.11 515.38 597.61 518.00 601.00
C 521.90 598.16 521.69 587.80 516.00 595.00
C 514.30 588.85 516.97 587.87 521.00 591.00
C 510.08 558.36 495.94 524.46 488.00 492.00
C 479.85 468.99 472.93 445.04 463.00 423.00
C 456.37 440.17 449.56 453.38 442.98 470.98 C 436.39 488.57 431.36 499.81 423.31 518.30 C 415.26 536.80 392.34 536.00 374.00 536.00 Z" data-index="7"></path>
</g>
<g fill="None" fill-opacity="0.0" stroke="#1895B0" stroke-opacity="1.00" stroke-width="0.3"><path d="
M 291.00 496.00 
C 271.66 496.00 250.52 497.75 232.00 497.00
C 248.10 499.20 264.76 495.66 281.00 497.00 C 297.24 498.34 313.68 495.63 330.00 497.00 C 346.32 498.37 361.50 494.65 378.00 497.00 C 394.50 499.35 397.07 484.09 402.22 472.22 C 407.38 460.36 411.18 449.71 416.00 438.00
C 410.10 447.64 407.20 459.93 401.92 469.92 C 396.65 479.91 396.25 495.98 382.00 496.00 C 367.75 496.02 350.66 495.99 336.00 496.00 C 321.34 496.01 305.75 496.00 291.00 496.00 Z" data-index="8"></path>
</g>
<g fill="None" fill-opacity="0.0" stroke="#3295D5" stroke-opacity="1.00" stroke-width="0.3"><path d="
M 394.00 674.00 
C 401.88 681.88 409.22 689.85 417.25 697.75 C 425.28 705.65 432.84 712.98 440.75 721.25 C 448.66 729.52 456.41 735.81 464.25 744.75 C 472.09 753.69 479.98 757.90 487.75 768.25 C 495.52 778.59 510.16 778.56 521.00 780.00
C 521.86 779.69 522.39 779.29 523.00 779.00
C 528.52 771.55 542.69 764.14 550.25 754.25 C 557.80 744.35 569.31 736.25 577.75 726.75 C 586.19 717.26 596.41 708.56 605.25 699.25 C 614.09 689.93 623.74 680.99 632.75 671.75 C 641.77 662.52 651.15 653.45 660.25 644.25 C 669.34 635.04 678.63 625.95 687.75 616.75 C 696.88 607.55 706.12 598.46 715.25 589.25 C 724.38 580.04 733.65 571.00 742.75 561.75 C 751.86 552.50 762.07 543.42 769.00 533.00
C 722.57 532.99 674.23 533.02 629.00 533.00
C 618.95 537.65 618.56 553.82 612.31 562.31 C 606.05 570.79 603.29 584.12 597.77 593.77 C 592.25 603.43 588.90 614.89 582.92 624.92 C 576.94 634.96 574.96 646.26 561.00 649.00 C 547.04 651.74 538.59 640.30 535.77 628.23 C 532.95 616.16 527.01 605.99 523.78 594.22 C 520.55 582.46 515.17 571.87 511.78 560.22 C 508.38 548.57 503.29 537.72 499.93 526.07 C 496.56 514.43 491.92 503.45 488.00 492.00
C 495.94 524.46 510.08 558.36 521.00 591.00
C 516.97 587.87 514.30 588.85 516.00 595.00
C 521.69 587.80 521.90 598.16 518.00 601.00
C 515.38 597.61 510.88 600.11 511.00 604.00
C 508.56 602.00 502.23 601.41 504.00 607.00
C 502.14 605.45 501.57 602.87 500.00 608.00
C 495.48 603.11 491.49 610.40 493.00 615.00
C 496.73 613.11 495.68 619.05 492.00 618.00
C 492.85 615.86 491.37 614.97 491.00 613.00
C 487.11 612.60 490.48 617.91 488.00 619.00
C 487.83 616.31 484.80 613.51 482.00 614.00
C 485.93 617.93 477.13 617.17 483.00 621.00
C 479.98 619.99 477.60 620.73 480.00 624.00
C 476.60 623.10 473.80 624.28 471.00 626.00
C 472.55 628.68 471.01 631.63 472.00 634.00
C 469.53 634.18 467.49 637.54 466.00 634.00
C 465.70 638.72 464.86 635.51 463.00 635.00
C 462.76 637.47 459.43 639.15 457.00 639.00
C 456.85 641.70 456.79 643.88 456.00 646.00
C 452.23 643.89 446.56 649.70 451.00 652.00
C 444.62 652.23 443.39 653.03 438.00 655.00
C 441.74 656.58 433.80 663.05 434.00 658.00
C 435.07 663.81 426.35 659.84 431.00 665.00
C 424.94 666.22 431.28 657.64 429.00 655.00
C 428.03 657.69 426.02 662.13 427.00 665.00
C 422.70 661.98 422.08 665.57 420.00 668.00
C 423.32 666.69 423.48 671.16 426.00 671.00
C 424.02 672.65 424.64 674.97 421.00 675.00
C 422.83 669.16 420.94 672.53 418.00 669.00
C 415.74 671.48 420.63 672.35 420.00 675.00
C 415.62 675.06 413.81 671.21 409.00 673.00
C 411.93 676.70 405.85 676.95 405.00 680.00
C 399.82 678.99 400.47 675.47 398.00 672.00
C 395.97 671.84 395.36 674.30 394.00 674.00 Z" data-index="9"></path>
</g>
<g fill="None" fill-opacity="0.0" stroke="#1A80D1" stroke-opacity="1.00" stroke-width="0.3"><path d="
M 629.00 533.00 
C 674.23 533.02 722.57 532.99 769.00 533.00
C 762.07 543.42 751.86 552.50 742.75 561.75 C 733.65 571.00 724.38 580.04 715.25 589.25 C 706.12 598.46 696.88 607.55 687.75 616.75 C 678.63 625.95 669.34 635.04 660.25 644.25 C 651.15 653.45 641.77 662.52 632.75 671.75 C 623.74 680.99 614.09 689.93 605.25 699.25 C 596.41 708.56 586.19 717.26 577.75 726.75 C 569.31 736.25 557.80 744.35 550.25 754.25 C 542.69 764.14 528.52 771.55 523.00 779.00
C 542.83 767.83 558.23 747.26 575.25 731.25 C 592.26 715.24 608.02 698.04 624.75 681.75 C 641.49 665.46 657.63 648.67 674.25 632.25 C 690.86 615.82 707.18 599.26 723.75 582.75 C 740.32 566.25 757.01 549.59 772.00 532.00
C 760.13 532.27 747.82 531.65 736.00 532.00 C 724.18 532.35 711.66 531.32 700.00 532.00 C 688.34 532.68 675.28 530.54 664.00 532.00 C 652.72 533.46 639.12 528.32 629.00 533.00 Z" data-index="10"></path>
</g>
<g fill="None" fill-opacity="0.0" stroke="#C3E3EB" stroke-opacity="1.00" stroke-width="0.3"><path d="
M 257.00 537.00 
C 295.76 534.37 335.32 540.51 374.00 537.00
C 374.00 537.00 374.04 536.00 374.00 536.00
C 335.15 536.00 295.10 535.17 257.00 537.00 Z" data-index="11"></path>
</g>
<g fill="None" fill-opacity="0.0" stroke="#058CB2" stroke-opacity="1.00" stroke-width="0.3"><path d="
M 280.00 562.00 
C 304.94 583.31 327.85 608.85 351.00 632.00
C 321.01 600.24 288.11 570.39 259.00 538.00
C 266.76 537.90 275.33 538.14 283.00 538.00 C 290.67 537.86 298.54 538.27 306.00 538.00 C 313.46 537.73 321.89 538.59 329.00 538.00 C 336.11 537.41 345.60 539.31 352.00 538.00 C 358.40 536.69 369.78 541.36 374.00 537.00
C 335.32 540.51 295.76 534.37 257.00 537.00
C 264.59 545.05 271.59 554.81 280.00 562.00 Z" data-index="12"></path>
</g>
<g fill="None" fill-opacity="0.0" stroke="#6DB8DF" stroke-opacity="1.00" stroke-width="0.3"><path d="
M 493.00 775.00 
C 467.88 753.11 446.77 726.54 422.25 703.75 C 397.73 680.97 374.59 655.59 351.00 632.00
C 327.85 608.85 304.94 583.31 280.00 562.00
C 303.48 585.48 326.54 610.35 350.75 633.25 C 374.96 656.14 396.90 682.18 421.75 704.25 C 446.60 726.32 466.42 755.23 493.00 775.00 Z" data-index="13"></path>
</g>
<g fill="None" fill-opacity="0.0" stroke="#087AC9" stroke-opacity="1.00" stroke-width="0.3"><path d="
M 493.00 775.00 
C 500.37 780.48 511.97 783.30 521.00 780.00
C 510.16 778.56 495.52 778.59 487.75 768.25 C 479.98 757.90 472.09 753.69 464.25 744.75 C 456.41 735.81 448.66 729.52 440.75 721.25 C 432.84 712.98 425.28 705.65 417.25 697.75 C 409.22 689.85 401.88 681.88 394.00 674.00
C 379.96 659.96 365.08 646.08 351.00 632.00
C 374.59 655.59 397.73 680.97 422.25 703.75 C 446.77 726.54 467.88 753.11 493.00 775.00 Z" data-index="14"></path>
</g>
<g fill="#FEFEFF" fill-opacity="1.00" stroke="None">

</g>
<g fill="#31B3B8" fill-opacity="1.00" stroke="None">
<path d="
M 232.00 497.00 
C 250.52 497.75 271.66 496.00 291.00 496.00
C 292.41 495.73 293.98 493.44 296.00 493.00
C 292.87 490.84 295.85 486.39 295.00 484.00
C 297.16 483.49 301.54 483.07 299.00 480.00
C 302.15 482.25 303.80 477.21 301.00 476.00
C 306.39 475.61 307.82 470.52 313.00 471.00
C 312.42 468.78 308.01 465.32 313.00 466.00
C 311.79 463.69 312.56 461.31 313.00 459.00
C 316.70 458.28 312.46 463.52 315.71 462.64 C 318.96 461.75 319.57 459.66 317.00 458.00
C 322.23 459.12 322.00 456.42 320.00 453.00
C 322.58 451.52 323.52 453.23 325.00 455.00
C 324.94 449.64 328.08 451.94 328.00 455.00
C 332.44 450.64 328.03 447.29 331.00 444.00
C 331.91 447.90 334.01 445.61 337.00 445.00
C 336.19 442.96 333.73 442.03 333.00 440.00
C 336.72 441.53 342.68 439.96 336.00 438.00
C 338.37 436.85 340.30 438.30 343.00 438.00
C 339.18 436.41 340.89 435.49 344.00 435.00
C 340.66 433.30 343.59 432.40 344.00 430.00
C 335.22 433.83 346.07 424.66 346.00 433.00
C 349.34 431.17 347.59 428.54 348.00 427.00
C 347.07 424.45 350.75 427.50 351.00 429.00
C 355.38 422.44 345.66 425.45 346.00 420.00
C 349.51 420.81 350.09 419.47 354.00 421.00
C 352.65 415.91 358.08 416.34 355.00 412.00
C 357.77 410.22 364.26 408.96 361.00 414.00
C 363.73 412.43 363.25 410.79 367.00 413.00
C 367.72 407.97 368.00 409.77 368.00 403.00
C 370.53 403.80 373.17 401.15 375.00 405.00
C 379.25 401.97 370.40 402.50 374.27 400.25 C 378.13 397.99 375.32 399.06 373.00 398.00
C 375.21 394.73 379.96 396.91 382.00 396.00
C 380.35 394.59 377.35 395.15 377.00 392.00
C 380.45 388.82 380.59 387.18 386.00 388.00
C 384.24 386.30 383.54 384.31 386.00 381.00
C 388.38 389.11 392.72 379.24 399.00 380.00
C 395.77 378.05 397.34 376.25 399.00 372.00
C 403.34 373.85 401.35 370.29 399.00 369.00
C 402.16 367.45 403.91 368.88 408.00 366.00
C 405.05 364.50 404.94 360.04 408.00 364.00
C 406.90 360.25 411.05 362.84 410.00 359.00
C 413.42 362.36 415.69 358.13 419.00 357.00
C 416.82 355.81 412.98 359.94 413.00 356.00
C 423.89 352.84 430.68 343.47 439.00 335.00
C 432.30 339.75 441.42 328.95 444.30 327.29 C 447.19 325.62 449.99 314.45 456.00 317.00
C 454.71 313.85 456.23 313.67 458.00 316.00
C 457.80 311.09 462.73 311.99 465.00 307.00
C 467.80 311.40 470.98 303.48 473.00 308.00
C 473.94 306.15 474.28 303.19 471.00 304.00
C 473.86 303.06 473.49 299.78 475.00 298.00
C 475.54 300.46 474.95 303.77 479.00 303.00
C 475.53 300.84 476.49 295.42 479.00 301.00
C 479.34 297.86 481.78 295.93 484.00 294.00
C 483.51 296.70 483.19 298.62 485.00 301.00
C 489.19 299.18 484.46 296.79 489.00 297.00
C 488.14 293.54 484.79 292.45 489.00 291.00
C 480.46 282.79 474.07 277.94 465.92 271.08 C 457.77 264.22 447.55 258.87 438.26 253.74 C 428.96 248.62 414.53 244.42 407.00 241.00
C 393.98 237.67 377.63 235.30 363.00 236.00 C 348.37 236.70 333.19 239.09 320.22 243.22 C 307.26 247.35 296.82 252.12 285.70 258.70 C 274.57 265.28 266.37 271.36 256.75 279.75 C 247.13 288.14 241.37 296.85 233.75 306.75 C 226.14 316.66 221.15 327.27 215.92 338.92 C 210.70 350.58 206.78 364.95 204.99 377.99 C 203.20 391.04 201.64 412.31 204.00 425.00 C 206.36 437.69 207.57 455.78 213.23 465.77 C 218.89 475.76 220.99 495.50 232.00 497.00 Z" data-index="16" style="opacity: 1;"></path>
</g>
<g fill="#32AAC1" fill-opacity="1.00" stroke="None">
<path d="
M 407.00 241.00 
C 414.53 244.42 428.96 248.62 438.26 253.74 C 447.55 258.87 457.77 264.22 465.92 271.08 C 474.07 277.94 480.46 282.79 489.00 291.00
C 484.79 292.45 488.14 293.54 489.00 297.00
C 484.46 296.79 489.19 299.18 485.00 301.00
C 483.19 298.62 483.51 296.70 484.00 294.00
C 481.78 295.93 479.34 297.86 479.00 301.00
C 476.49 295.42 475.53 300.84 479.00 303.00
C 474.95 303.77 475.54 300.46 475.00 298.00
C 473.49 299.78 473.86 303.06 471.00 304.00
C 474.28 303.19 473.94 306.15 473.00 308.00
C 470.98 303.48 467.80 311.40 465.00 307.00
C 462.73 311.99 457.80 311.09 458.00 316.00
C 456.23 313.67 454.71 313.85 456.00 317.00
C 449.99 314.45 447.19 325.62 444.30 327.29 C 441.42 328.95 432.30 339.75 439.00 335.00
C 430.68 343.47 423.89 352.84 413.00 356.00
C 412.98 359.94 416.82 355.81 419.00 357.00
C 415.69 358.13 413.42 362.36 410.00 359.00
C 411.05 362.84 406.90 360.25 408.00 364.00
C 404.94 360.04 405.05 364.50 408.00 366.00
C 403.91 368.88 402.16 367.45 399.00 369.00
C 401.35 370.29 403.34 373.85 399.00 372.00
C 397.34 376.25 395.77 378.05 399.00 380.00
C 392.72 379.24 388.38 389.11 386.00 381.00
C 383.54 384.31 384.24 386.30 386.00 388.00
C 380.59 387.18 380.45 388.82 377.00 392.00
C 377.35 395.15 380.35 394.59 382.00 396.00
C 379.96 396.91 375.21 394.73 373.00 398.00
C 375.32 399.06 378.13 397.99 374.27 400.25 C 370.40 402.50 379.25 401.97 375.00 405.00
C 373.17 401.15 370.53 403.80 368.00 403.00
C 368.00 409.77 367.72 407.97 367.00 413.00
C 363.25 410.79 363.73 412.43 361.00 414.00
C 364.26 408.96 357.77 410.22 355.00 412.00
C 358.08 416.34 352.65 415.91 354.00 421.00
C 350.09 419.47 349.51 420.81 346.00 420.00
C 345.66 425.45 355.38 422.44 351.00 429.00
C 350.75 427.50 347.07 424.45 348.00 427.00
C 347.59 428.54 349.34 431.17 346.00 433.00
C 346.07 424.66 335.22 433.83 344.00 430.00
C 343.59 432.40 340.66 433.30 344.00 435.00
C 340.89 435.49 339.18 436.41 343.00 438.00
C 340.30 438.30 338.37 436.85 336.00 438.00
C 342.68 439.96 336.72 441.53 333.00 440.00
C 333.73 442.03 336.19 442.96 337.00 445.00
C 334.01 445.61 331.91 447.90 331.00 444.00
C 328.03 447.29 332.44 450.64 328.00 455.00
C 328.08 451.94 324.94 449.64 325.00 455.00
C 323.52 453.23 322.58 451.52 320.00 453.00
C 322.00 456.42 322.23 459.12 317.00 458.00
C 319.57 459.66 318.96 461.75 315.71 462.64 C 312.46 463.52 316.70 458.28 313.00 459.00
C 312.56 461.31 311.79 463.69 313.00 466.00
C 308.01 465.32 312.42 468.78 313.00 471.00
C 307.82 470.52 306.39 475.61 301.00 476.00
C 303.80 477.21 302.15 482.25 299.00 480.00
C 301.54 483.07 297.16 483.49 295.00 484.00
C 295.85 486.39 292.87 490.84 296.00 493.00
C 293.98 493.44 292.41 495.73 291.00 496.00
C 305.75 496.00 321.34 496.01 336.00 496.00 C 350.66 495.99 367.75 496.02 382.00 496.00 C 396.25 495.98 396.65 479.91 401.92 469.92 C 407.20 459.93 410.10 447.64 416.00 438.00
C 423.85 425.18 427.82 408.49 435.02 395.03 C 442.23 381.56 443.27 364.95 456.00 355.00
C 460.01 351.86 467.34 350.16 473.00 352.00 C 478.66 353.84 480.52 354.96 483.92 361.08 C 487.32 367.20 486.75 367.40 489.98 376.02 C 493.20 384.65 497.60 396.42 500.78 405.22 C 503.96 414.03 507.55 408.27 510.00 413.00
C 511.91 408.09 512.93 411.96 515.00 413.00
C 514.09 409.31 515.02 405.76 516.00 402.00
C 516.77 405.10 518.84 410.57 518.00 404.00
C 521.98 407.51 523.38 401.52 528.00 402.00
C 524.98 399.58 527.31 398.41 531.00 397.00
C 528.06 396.26 525.50 398.90 524.00 396.00
C 526.48 396.07 528.24 393.63 531.00 395.00
C 530.46 392.19 531.88 389.85 534.00 394.00
C 538.70 390.16 541.65 382.88 546.00 378.00
C 543.95 382.70 551.68 386.19 551.00 380.00
C 549.42 383.55 546.72 378.22 548.00 376.00
C 550.61 380.38 550.14 373.84 554.00 377.00
C 555.30 372.44 558.16 372.86 560.00 375.00
C 562.11 369.04 572.90 368.43 568.00 361.00
C 571.18 363.89 573.53 360.77 578.00 363.00
C 576.45 358.22 590.45 355.81 585.00 350.00
C 589.65 349.90 589.39 347.38 594.00 349.00
C 593.25 346.09 593.90 344.10 594.00 341.00
C 595.60 342.82 599.35 345.00 597.00 348.00
C 599.96 345.74 600.42 342.83 603.00 348.00
C 600.93 342.23 606.46 340.77 609.00 336.00
C 610.88 339.55 615.11 335.57 618.00 335.00
C 612.99 331.50 621.14 333.86 618.00 330.00
C 621.29 331.31 623.93 330.11 623.00 326.00
C 625.48 328.88 626.52 326.94 629.00 326.00
C 623.04 323.16 632.11 324.55 634.68 321.68 C 637.25 318.81 640.38 317.11 640.00 312.00
C 643.30 315.33 643.46 309.74 643.00 307.00
C 647.30 309.33 648.12 310.93 646.00 305.00
C 648.46 307.47 650.71 310.51 649.00 305.00
C 651.91 308.04 654.97 305.74 655.00 302.00
C 656.42 305.47 654.87 307.50 658.00 309.00
C 658.68 303.16 658.45 303.27 662.00 301.00
C 658.84 299.12 655.55 301.77 653.00 299.00
C 655.00 298.36 657.52 298.43 660.00 297.00
C 659.82 299.81 663.11 297.15 664.00 300.00
C 667.27 297.24 663.92 292.87 667.00 290.00
C 667.19 294.24 669.11 294.74 670.00 290.00
C 672.12 291.73 672.34 292.69 675.00 293.00
C 671.37 284.18 684.03 285.60 683.00 277.00
C 684.31 278.72 686.41 280.39 689.00 280.00
C 686.60 277.25 686.01 275.60 688.00 273.00
C 689.93 273.65 690.85 276.91 693.00 275.00
C 690.27 272.88 692.05 271.06 695.00 271.00
C 696.06 273.63 692.74 275.26 694.00 279.00
C 695.53 276.91 697.36 275.44 697.00 272.00
C 700.47 272.88 702.08 269.00 703.00 265.00
C 705.90 265.51 703.05 268.49 706.00 269.00
C 704.90 263.17 708.69 267.67 712.00 266.00
C 710.85 263.60 711.13 260.22 714.00 259.00
C 712.71 261.50 714.25 262.38 716.00 264.00
C 718.20 262.28 720.22 260.62 718.00 256.00
C 722.39 261.80 722.57 256.15 727.00 253.00
C 712.98 246.44 696.89 243.06 683.00 238.00
C 660.43 234.56 629.71 236.42 609.07 242.07 C 588.44 247.73 571.87 260.99 555.25 270.25 C 538.62 279.50 527.34 308.80 507.68 303.32 C 488.02 297.84 479.90 276.81 462.25 266.75 C 444.59 256.70 427.09 246.13 407.00 241.00 Z" data-index="17" style="opacity: 1;"></path>
</g>
<g fill="#33A3C8" fill-opacity="1.00" stroke="None">
<path d="
M 456.00 355.00 
C 477.92 343.17 487.28 368.98 492.02 384.98 C 496.77 400.97 504.21 420.30 510.00 436.00
C 516.08 446.52 520.22 464.49 525.00 478.00
C 526.37 475.42 529.37 477.54 531.00 480.00
C 532.17 478.55 533.05 475.78 532.00 474.00
C 536.41 473.79 530.45 480.66 536.00 480.00
C 534.60 475.80 536.37 471.35 540.00 470.00
C 538.71 467.38 535.02 470.03 536.00 466.00
C 538.05 468.28 541.83 466.00 541.00 470.00
C 546.01 471.03 545.01 465.10 545.00 462.00
C 547.08 466.09 546.13 463.46 548.00 461.00
C 550.58 462.44 547.23 465.23 549.00 467.00
C 551.30 464.67 551.34 458.55 555.00 461.00
C 551.15 455.68 568.29 457.85 560.00 454.00
C 567.50 456.03 570.95 442.75 578.00 445.00
C 578.26 442.56 579.76 440.48 580.00 438.00
C 581.51 445.89 586.38 437.76 588.00 434.00
C 589.66 437.71 592.22 433.13 593.00 431.00
C 595.57 434.19 595.84 430.56 599.00 431.00
C 595.31 433.56 599.95 432.74 602.00 432.00
C 600.07 431.11 599.81 427.67 597.00 428.00
C 599.70 426.94 602.90 424.72 606.00 426.00
C 602.67 429.65 606.04 428.36 609.00 428.00
C 607.47 423.92 605.83 421.54 612.00 424.00
C 610.10 421.82 608.42 419.34 605.00 420.00
C 608.20 419.23 609.50 414.16 611.00 419.00
C 612.16 415.81 613.12 413.78 615.00 418.00
C 616.89 415.50 613.36 414.28 615.00 412.00
C 618.99 410.56 624.11 414.89 627.00 409.00
C 623.75 409.11 622.61 412.30 623.00 407.00
C 626.31 409.82 624.61 404.25 628.00 407.00
C 627.09 403.86 627.95 403.55 629.00 401.00
C 631.58 403.33 627.82 406.88 629.00 410.00
C 631.31 409.90 629.88 404.92 634.00 408.00
C 628.56 403.60 635.56 405.72 635.00 399.00
C 638.03 399.46 638.88 402.24 642.00 402.00
C 640.85 400.10 639.34 399.57 641.00 396.00
C 642.92 399.88 643.43 394.79 646.00 395.00
C 643.61 393.50 644.25 390.14 644.00 387.00
C 647.39 387.39 643.22 391.40 647.00 391.00
C 647.53 388.89 650.16 383.45 651.00 389.00
C 657.40 388.16 661.40 383.99 669.00 381.00
C 667.29 376.12 674.10 376.53 677.00 378.00
C 675.65 376.11 673.74 375.33 672.00 374.00
C 678.96 375.57 678.79 369.34 672.00 373.00
C 677.12 368.64 681.73 368.86 677.00 363.00
C 678.76 364.95 681.00 365.41 682.00 368.00
C 683.71 368.43 682.15 363.97 685.75 364.41 C 689.34 364.84 689.81 361.63 691.00 359.00
C 695.35 362.41 699.97 351.10 701.00 347.00
C 703.50 349.42 701.45 350.75 706.00 351.00
C 706.70 349.07 707.17 347.09 706.00 345.00
C 709.61 344.97 709.90 347.27 712.00 348.00
C 710.60 343.48 712.23 344.37 716.00 345.00
C 717.21 342.98 718.45 341.45 720.00 340.00
C 717.62 338.42 715.12 340.84 713.00 338.00
C 714.98 336.46 720.16 339.11 720.00 334.00
C 722.07 338.04 724.31 332.70 725.00 330.00
C 728.39 330.39 724.22 334.40 728.00 334.00
C 728.16 332.03 731.30 330.36 734.00 330.00
C 732.48 324.50 736.86 327.05 739.00 329.00
C 736.51 323.14 744.97 323.35 742.00 319.00
C 745.33 321.64 746.70 319.18 750.00 318.00
C 745.61 315.22 752.59 317.36 752.00 314.00
C 754.89 317.81 753.81 314.24 759.00 314.00
C 759.18 310.78 755.83 313.40 754.00 312.00
C 757.37 308.49 760.39 311.16 762.00 313.00
C 761.67 307.45 775.42 303.86 767.00 302.00
C 772.13 301.61 779.72 298.73 782.00 302.00
C 780.99 295.83 784.48 301.81 785.00 298.00
C 759.67 265.92 722.33 244.00 683.00 238.00
C 696.89 243.06 712.98 246.44 727.00 253.00
C 722.57 256.15 722.39 261.80 718.00 256.00
C 720.22 260.62 718.20 262.28 716.00 264.00
C 714.25 262.38 712.71 261.50 714.00 259.00
C 711.13 260.22 710.85 263.60 712.00 266.00
C 708.69 267.67 704.90 263.17 706.00 269.00
C 703.05 268.49 705.90 265.51 703.00 265.00
C 702.08 269.00 700.47 272.88 697.00 272.00
C 697.36 275.44 695.53 276.91 694.00 279.00
C 692.74 275.26 696.06 273.63 695.00 271.00
C 692.05 271.06 690.27 272.88 693.00 275.00
C 690.85 276.91 689.93 273.65 688.00 273.00
C 686.01 275.60 686.60 277.25 689.00 280.00
C 686.41 280.39 684.31 278.72 683.00 277.00
C 684.03 285.60 671.37 284.18 675.00 293.00
C 672.34 292.69 672.12 291.73 670.00 290.00
C 669.11 294.74 667.19 294.24 667.00 290.00
C 663.92 292.87 667.27 297.24 664.00 300.00
C 663.11 297.15 659.82 299.81 660.00 297.00
C 657.52 298.43 655.00 298.36 653.00 299.00
C 655.55 301.77 658.84 299.12 662.00 301.00
C 658.45 303.27 658.68 303.16 658.00 309.00
C 654.87 307.50 656.42 305.47 655.00 302.00
C 654.97 305.74 651.91 308.04 649.00 305.00
C 650.71 310.51 648.46 307.47 646.00 305.00
C 648.12 310.93 647.30 309.33 643.00 307.00
C 643.46 309.74 643.30 315.33 640.00 312.00
C 640.38 317.11 637.25 318.81 634.68 321.68 C 632.11 324.55 623.04 323.16 629.00 326.00
C 626.52 326.94 625.48 328.88 623.00 326.00
C 623.93 330.11 621.29 331.31 618.00 330.00
C 621.14 333.86 612.99 331.50 618.00 335.00
C 615.11 335.57 610.88 339.55 609.00 336.00
C 606.46 340.77 600.93 342.23 603.00 348.00
C 600.42 342.83 599.96 345.74 597.00 348.00
C 599.35 345.00 595.60 342.82 594.00 341.00
C 593.90 344.10 593.25 346.09 594.00 349.00
C 589.39 347.38 589.65 349.90 585.00 350.00
C 590.45 355.81 576.45 358.22 578.00 363.00
C 573.53 360.77 571.18 363.89 568.00 361.00
C 572.90 368.43 562.11 369.04 560.00 375.00
C 558.16 372.86 555.30 372.44 554.00 377.00
C 550.14 373.84 550.61 380.38 548.00 376.00
C 546.72 378.22 549.42 383.55 551.00 380.00
C 551.68 386.19 543.95 382.70 546.00 378.00
C 541.65 382.88 538.70 390.16 534.00 394.00
C 531.88 389.85 530.46 392.19 531.00 395.00
C 528.24 393.63 526.48 396.07 524.00 396.00
C 525.50 398.90 528.06 396.26 531.00 397.00
C 527.31 398.41 524.98 399.58 528.00 402.00
C 523.38 401.52 521.98 407.51 518.00 404.00
C 518.84 410.57 516.77 405.10 516.00 402.00
C 515.02 405.76 514.09 409.31 515.00 413.00
C 512.93 411.96 511.91 408.09 510.00 413.00
C 507.55 408.27 503.96 414.03 500.78 405.22 C 497.60 396.42 493.20 384.65 489.98 376.02 C 486.75 367.40 487.32 367.20 483.92 361.08 C 480.52 354.96 478.66 353.84 473.00 352.00 C 467.34 350.16 460.01 351.86 456.00 355.00 Z" data-index="18" style="opacity: 1;"></path>
</g>
<g fill="#339CCF" fill-opacity="1.00" stroke="None">
<path d="
M 510.00 436.00 
C 526.54 484.75 541.42 534.90 561.00 582.00
C 574.23 558.62 581.98 531.35 597.00 509.00
C 600.46 500.21 609.03 492.39 621.00 492.00 C 632.98 491.61 650.88 492.32 664.00 492.00 C 677.12 491.68 693.55 492.48 707.00 492.00 C 720.45 491.52 736.80 492.95 750.00 492.00 C 763.20 491.05 780.80 494.05 793.00 492.00 C 805.20 489.95 803.80 475.14 809.78 465.78 C 815.75 456.42 814.98 442.34 818.00 431.00 C 821.02 419.66 819.79 403.16 819.07 390.93 C 818.36 378.70 815.38 364.84 814.00 354.00
C 808.37 333.82 798.11 314.61 785.00 298.00
C 784.48 301.81 780.99 295.83 782.00 302.00
C 779.72 298.73 772.13 301.61 767.00 302.00
C 775.42 303.86 761.67 307.45 762.00 313.00
C 760.39 311.16 757.37 308.49 754.00 312.00
C 755.83 313.40 759.18 310.78 759.00 314.00
C 753.81 314.24 754.89 317.81 752.00 314.00
C 752.59 317.36 745.61 315.22 750.00 318.00
C 746.70 319.18 745.33 321.64 742.00 319.00
C 744.97 323.35 736.51 323.14 739.00 329.00
C 736.86 327.05 732.48 324.50 734.00 330.00
C 731.30 330.36 728.16 332.03 728.00 334.00
C 724.22 334.40 728.39 330.39 725.00 330.00
C 724.31 332.70 722.07 338.04 720.00 334.00
C 720.16 339.11 714.98 336.46 713.00 338.00
C 715.12 340.84 717.62 338.42 720.00 340.00
C 718.45 341.45 717.21 342.98 716.00 345.00
C 712.23 344.37 710.60 343.48 712.00 348.00
C 709.90 347.27 709.61 344.97 706.00 345.00
C 707.17 347.09 706.70 349.07 706.00 351.00
C 701.45 350.75 703.50 349.42 701.00 347.00
C 699.97 351.10 695.35 362.41 691.00 359.00
C 689.81 361.63 689.34 364.84 685.75 364.41 C 682.15 363.97 683.71 368.43 682.00 368.00
C 681.00 365.41 678.76 364.95 677.00 363.00
C 681.73 368.86 677.12 368.64 672.00 373.00
C 678.79 369.34 678.96 375.57 672.00 374.00
C 673.74 375.33 675.65 376.11 677.00 378.00
C 674.10 376.53 667.29 376.12 669.00 381.00
C 661.40 383.99 657.40 388.16 651.00 389.00
C 650.16 383.45 647.53 388.89 647.00 391.00
C 643.22 391.40 647.39 387.39 644.00 387.00
C 644.25 390.14 643.61 393.50 646.00 395.00
C 643.43 394.79 642.92 399.88 641.00 396.00
C 639.34 399.57 640.85 400.10 642.00 402.00
C 638.88 402.24 638.03 399.46 635.00 399.00
C 635.56 405.72 628.56 403.60 634.00 408.00
C 629.88 404.92 631.31 409.90 629.00 410.00
C 627.82 406.88 631.58 403.33 629.00 401.00
C 627.95 403.55 627.09 403.86 628.00 407.00
C 624.61 404.25 626.31 409.82 623.00 407.00
C 622.61 412.30 623.75 409.11 627.00 409.00
C 624.11 414.89 618.99 410.56 615.00 412.00
C 613.36 414.28 616.89 415.50 615.00 418.00
C 613.12 413.78 612.16 415.81 611.00 419.00
C 609.50 414.16 608.20 419.23 605.00 420.00
C 608.42 419.34 610.10 421.82 612.00 424.00
C 605.83 421.54 607.47 423.92 609.00 428.00
C 606.04 428.36 602.67 429.65 606.00 426.00
C 602.90 424.72 599.70 426.94 597.00 428.00
C 599.81 427.67 600.07 431.11 602.00 432.00
C 599.95 432.74 595.31 433.56 599.00 431.00
C 595.84 430.56 595.57 434.19 593.00 431.00
C 592.22 433.13 589.66 437.71 588.00 434.00
C 586.38 437.76 581.51 445.89 580.00 438.00
C 579.76 440.48 578.26 442.56 578.00 445.00
C 570.95 442.75 567.50 456.03 560.00 454.00
C 568.29 457.85 551.15 455.68 555.00 461.00
C 551.34 458.55 551.30 464.67 549.00 467.00
C 547.23 465.23 550.58 462.44 548.00 461.00
C 546.13 463.46 547.08 466.09 545.00 462.00
C 545.01 465.10 546.01 471.03 541.00 470.00
C 541.83 466.00 538.05 468.28 536.00 466.00
C 535.02 470.03 538.71 467.38 540.00 470.00
C 536.37 471.35 534.60 475.80 536.00 480.00
C 530.45 480.66 536.41 473.79 532.00 474.00
C 533.05 475.78 532.17 478.55 531.00 480.00
C 529.37 477.54 526.37 475.42 525.00 478.00
C 520.22 464.49 516.08 446.52 510.00 436.00 Z" data-index="19" style="opacity: 1;"></path>
</g>
<g fill="#147EC7" fill-opacity="1.00" stroke="None">
<path d="
M 597.00 509.00 
C 602.05 501.48 607.22 495.88 616.98 493.98 C 626.74 492.07 640.07 493.20 651.00 493.00 C 661.93 492.80 674.68 493.04 686.00 493.00 C 697.32 492.96 709.53 492.90 721.00 493.00 C 732.47 493.10 744.50 492.70 756.00 493.00 C 767.50 493.30 779.59 492.29 791.00 493.00 C 802.41 493.71 802.96 482.49 807.23 474.23 C 811.50 465.97 813.85 457.47 816.22 448.22 C 818.59 438.97 821.00 428.09 821.00 418.00
C 821.00 411.00 821.00 404.00 821.00 397.00
C 821.00 381.92 817.91 368.01 814.00 354.00
C 815.38 364.84 818.36 378.70 819.07 390.93 C 819.79 403.16 821.02 419.66 818.00 431.00 C 814.98 442.34 815.75 456.42 809.78 465.78 C 803.80 475.14 805.20 489.95 793.00 492.00 C 780.80 494.05 763.20 491.05 750.00 492.00 C 736.80 492.95 720.45 491.52 707.00 492.00 C 693.55 492.48 677.12 491.68 664.00 492.00 C 650.88 492.32 632.98 491.61 621.00 492.00 C 609.03 492.39 600.46 500.21 597.00 509.00 Z" data-index="20"></path>
</g>
<g fill="#76BBE1" fill-opacity="1.00" stroke="None">
<path d="
M 821.00 418.00 
C 821.63 411.46 821.64 403.61 821.00 397.00
C 821.00 404.00 821.00 411.00 821.00 418.00 Z" data-index="21"></path>
</g>
<g fill="#33A1CB" fill-opacity="1.00" stroke="None">
<path d="
M 374.00 536.00 
C 374.04 536.00 374.00 537.00 374.00 537.00
C 369.78 541.36 358.40 536.69 352.00 538.00 C 345.60 539.31 336.11 537.41 329.00 538.00 C 321.89 538.59 313.46 537.73 306.00 538.00 C 298.54 538.27 290.67 537.86 283.00 538.00 C 275.33 538.14 266.76 537.90 259.00 538.00
C 288.11 570.39 321.01 600.24 351.00 632.00
C 365.08 646.08 379.96 659.96 394.00 674.00
C 395.36 674.30 395.97 671.84 398.00 672.00
C 400.47 675.47 399.82 678.99 405.00 680.00
C 405.85 676.95 411.93 676.70 409.00 673.00
C 413.81 671.21 415.62 675.06 420.00 675.00
C 420.63 672.35 415.74 671.48 418.00 669.00
C 420.94 672.53 422.83 669.16 421.00 675.00
C 424.64 674.97 424.02 672.65 426.00 671.00
C 423.48 671.16 423.32 666.69 420.00 668.00
C 422.08 665.57 422.70 661.98 427.00 665.00
C 426.02 662.13 428.03 657.69 429.00 655.00
C 431.28 657.64 424.94 666.22 431.00 665.00
C 426.35 659.84 435.07 663.81 434.00 658.00
C 433.80 663.05 441.74 656.58 438.00 655.00
C 443.39 653.03 444.62 652.23 451.00 652.00
C 446.56 649.70 452.23 643.89 456.00 646.00
C 456.79 643.88 456.85 641.70 457.00 639.00
C 459.43 639.15 462.76 637.47 463.00 635.00
C 464.86 635.51 465.70 638.72 466.00 634.00
C 467.49 637.54 469.53 634.18 472.00 634.00
C 471.01 631.63 472.55 628.68 471.00 626.00
C 473.80 624.28 476.60 623.10 480.00 624.00
C 477.60 620.73 479.98 619.99 483.00 621.00
C 477.13 617.17 485.93 617.93 482.00 614.00
C 484.80 613.51 487.83 616.31 488.00 619.00
C 490.48 617.91 487.11 612.60 491.00 613.00
C 491.37 614.97 492.85 615.86 492.00 618.00
C 495.68 619.05 496.73 613.11 493.00 615.00
C 491.49 610.40 495.48 603.11 500.00 608.00
C 501.57 602.87 502.14 605.45 504.00 607.00
C 502.23 601.41 508.56 602.00 511.00 604.00
C 510.88 600.11 515.38 597.61 518.00 601.00
C 521.90 598.16 521.69 587.80 516.00 595.00
C 514.30 588.85 516.97 587.87 521.00 591.00
C 510.08 558.36 495.94 524.46 488.00 492.00
C 479.85 468.99 472.93 445.04 463.00 423.00
C 456.37 440.17 449.56 453.38 442.98 470.98 C 436.39 488.57 431.36 499.81 423.31 518.30 C 415.26 536.80 392.34 536.00 374.00 536.00 Z" data-index="22"></path>
</g>
<g fill="#1895B0" fill-opacity="1.00" stroke="None">
<path d="
M 291.00 496.00 
C 271.66 496.00 250.52 497.75 232.00 497.00
C 248.10 499.20 264.76 495.66 281.00 497.00 C 297.24 498.34 313.68 495.63 330.00 497.00 C 346.32 498.37 361.50 494.65 378.00 497.00 C 394.50 499.35 397.07 484.09 402.22 472.22 C 407.38 460.36 411.18 449.71 416.00 438.00
C 410.10 447.64 407.20 459.93 401.92 469.92 C 396.65 479.91 396.25 495.98 382.00 496.00 C 367.75 496.02 350.66 495.99 336.00 496.00 C 321.34 496.01 305.75 496.00 291.00 496.00 Z" data-index="23"></path>
</g>
<g fill="#3295D5" fill-opacity="1.00" stroke="None">
<path d="
M 394.00 674.00 
C 401.88 681.88 409.22 689.85 417.25 697.75 C 425.28 705.65 432.84 712.98 440.75 721.25 C 448.66 729.52 456.41 735.81 464.25 744.75 C 472.09 753.69 479.98 757.90 487.75 768.25 C 495.52 778.59 510.16 778.56 521.00 780.00
C 521.86 779.69 522.39 779.29 523.00 779.00
C 528.52 771.55 542.69 764.14 550.25 754.25 C 557.80 744.35 569.31 736.25 577.75 726.75 C 586.19 717.26 596.41 708.56 605.25 699.25 C 614.09 689.93 623.74 680.99 632.75 671.75 C 641.77 662.52 651.15 653.45 660.25 644.25 C 669.34 635.04 678.63 625.95 687.75 616.75 C 696.88 607.55 706.12 598.46 715.25 589.25 C 724.38 580.04 733.65 571.00 742.75 561.75 C 751.86 552.50 762.07 543.42 769.00 533.00
C 722.57 532.99 674.23 533.02 629.00 533.00
C 618.95 537.65 618.56 553.82 612.31 562.31 C 606.05 570.79 603.29 584.12 597.77 593.77 C 592.25 603.43 588.90 614.89 582.92 624.92 C 576.94 634.96 574.96 646.26 561.00 649.00 C 547.04 651.74 538.59 640.30 535.77 628.23 C 532.95 616.16 527.01 605.99 523.78 594.22 C 520.55 582.46 515.17 571.87 511.78 560.22 C 508.38 548.57 503.29 537.72 499.93 526.07 C 496.56 514.43 491.92 503.45 488.00 492.00
C 495.94 524.46 510.08 558.36 521.00 591.00
C 516.97 587.87 514.30 588.85 516.00 595.00
C 521.69 587.80 521.90 598.16 518.00 601.00
C 515.38 597.61 510.88 600.11 511.00 604.00
C 508.56 602.00 502.23 601.41 504.00 607.00
C 502.14 605.45 501.57 602.87 500.00 608.00
C 495.48 603.11 491.49 610.40 493.00 615.00
C 496.73 613.11 495.68 619.05 492.00 618.00
C 492.85 615.86 491.37 614.97 491.00 613.00
C 487.11 612.60 490.48 617.91 488.00 619.00
C 487.83 616.31 484.80 613.51 482.00 614.00
C 485.93 617.93 477.13 617.17 483.00 621.00
C 479.98 619.99 477.60 620.73 480.00 624.00
C 476.60 623.10 473.80 624.28 471.00 626.00
C 472.55 628.68 471.01 631.63 472.00 634.00
C 469.53 634.18 467.49 637.54 466.00 634.00
C 465.70 638.72 464.86 635.51 463.00 635.00
C 462.76 637.47 459.43 639.15 457.00 639.00
C 456.85 641.70 456.79 643.88 456.00 646.00
C 452.23 643.89 446.56 649.70 451.00 652.00
C 444.62 652.23 443.39 653.03 438.00 655.00
C 441.74 656.58 433.80 663.05 434.00 658.00
C 435.07 663.81 426.35 659.84 431.00 665.00
C 424.94 666.22 431.28 657.64 429.00 655.00
C 428.03 657.69 426.02 662.13 427.00 665.00
C 422.70 661.98 422.08 665.57 420.00 668.00
C 423.32 666.69 423.48 671.16 426.00 671.00
C 424.02 672.65 424.64 674.97 421.00 675.00
C 422.83 669.16 420.94 672.53 418.00 669.00
C 415.74 671.48 420.63 672.35 420.00 675.00
C 415.62 675.06 413.81 671.21 409.00 673.00
C 411.93 676.70 405.85 676.95 405.00 680.00
C 399.82 678.99 400.47 675.47 398.00 672.00
C 395.97 671.84 395.36 674.30 394.00 674.00 Z" data-index="24"></path>
</g>
<g fill="#1A80D1" fill-opacity="1.00" stroke="None">
<path d="
M 629.00 533.00 
C 674.23 533.02 722.57 532.99 769.00 533.00
C 762.07 543.42 751.86 552.50 742.75 561.75 C 733.65 571.00 724.38 580.04 715.25 589.25 C 706.12 598.46 696.88 607.55 687.75 616.75 C 678.63 625.95 669.34 635.04 660.25 644.25 C 651.15 653.45 641.77 662.52 632.75 671.75 C 623.74 680.99 614.09 689.93 605.25 699.25 C 596.41 708.56 586.19 717.26 577.75 726.75 C 569.31 736.25 557.80 744.35 550.25 754.25 C 542.69 764.14 528.52 771.55 523.00 779.00
C 542.83 767.83 558.23 747.26 575.25 731.25 C 592.26 715.24 608.02 698.04 624.75 681.75 C 641.49 665.46 657.63 648.67 674.25 632.25 C 690.86 615.82 707.18 599.26 723.75 582.75 C 740.32 566.25 757.01 549.59 772.00 532.00
C 760.13 532.27 747.82 531.65 736.00 532.00 C 724.18 532.35 711.66 531.32 700.00 532.00 C 688.34 532.68 675.28 530.54 664.00 532.00 C 652.72 533.46 639.12 528.32 629.00 533.00 Z" data-index="25"></path>
</g>
<g fill="#C3E3EB" fill-opacity="1.00" stroke="None">
<path d="
M 257.00 537.00 
C 295.76 534.37 335.32 540.51 374.00 537.00
C 374.00 537.00 374.04 536.00 374.00 536.00
C 335.15 536.00 295.10 535.17 257.00 537.00 Z" data-index="26"></path>
</g>
<g fill="#058CB2" fill-opacity="1.00" stroke="None">
<path d="
M 280.00 562.00 
C 304.94 583.31 327.85 608.85 351.00 632.00
C 321.01 600.24 288.11 570.39 259.00 538.00
C 266.76 537.90 275.33 538.14 283.00 538.00 C 290.67 537.86 298.54 538.27 306.00 538.00 C 313.46 537.73 321.89 538.59 329.00 538.00 C 336.11 537.41 345.60 539.31 352.00 538.00 C 358.40 536.69 369.78 541.36 374.00 537.00
C 335.32 540.51 295.76 534.37 257.00 537.00
C 264.59 545.05 271.59 554.81 280.00 562.00 Z" data-index="27"></path>
</g>
<g fill="#6DB8DF" fill-opacity="1.00" stroke="None">
<path d="
M 493.00 775.00 
C 467.88 753.11 446.77 726.54 422.25 703.75 C 397.73 680.97 374.59 655.59 351.00 632.00
C 327.85 608.85 304.94 583.31 280.00 562.00
C 303.48 585.48 326.54 610.35 350.75 633.25 C 374.96 656.14 396.90 682.18 421.75 704.25 C 446.60 726.32 466.42 755.23 493.00 775.00 Z" data-index="28"></path>
</g>
<g fill="#087AC9" fill-opacity="1.00" stroke="None">
<path d="
M 493.00 775.00 
C 500.37 780.48 511.97 783.30 521.00 780.00
C 510.16 778.56 495.52 778.59 487.75 768.25 C 479.98 757.90 472.09 753.69 464.25 744.75 C 456.41 735.81 448.66 729.52 440.75 721.25 C 432.84 712.98 425.28 705.65 417.25 697.75 C 409.22 689.85 401.88 681.88 394.00 674.00
C 379.96 659.96 365.08 646.08 351.00 632.00
C 374.59 655.59 397.73 680.97 422.25 703.75 C 446.77 726.54 467.88 753.11 493.00 775.00 Z" data-index="29"></path>
</g>
</svg>