<?xml version="1.0" encoding="UTF-8"?>
<svg version="1.1" xmlns="http://www.w3.org/2000/svg" width="247" height="180">
<path d="M0 0 C0.88316895 0.00483398 1.76633789 0.00966797 2.67626953 0.01464844 C24.24288296 0.21117307 24.24288296 0.21117307 29.4375 5.125 C34.0226162 11.45682713 32.55438858 21.70330609 32.5 29.0625 C32.49548828 30.22330078 32.49097656 31.38410156 32.48632812 32.58007812 C32.47460647 35.42843934 32.4581976 38.27669222 32.4375 41.125 C33.34516113 41.10928955 34.25282227 41.0935791 35.18798828 41.07739258 C38.57623072 41.0260687 41.96405619 40.98855584 45.35253906 40.96020508 C46.81517075 40.94517804 48.27775782 40.92475045 49.74023438 40.89868164 C51.8503728 40.86202733 53.95991226 40.84521324 56.0703125 40.83203125 C57.33762207 40.8163208 58.60493164 40.80061035 59.91064453 40.78442383 C63.78694957 41.15874513 66.15045564 42.06585374 69.4375 44.125 C71.47484071 47.18101106 71.70870111 47.99880343 71.8515625 51.4765625 C71.89023438 52.32863281 71.92890625 53.18070313 71.96875 54.05859375 C71.9996875 54.94675781 72.030625 55.83492187 72.0625 56.75 C72.10117188 57.61496094 72.13984375 58.47992188 72.1796875 59.37109375 C73.11864053 81.73829618 73.11864053 81.73829618 68.0625 88.125 C63.39439871 91.36704648 57.92228522 91.04374392 52.4375 91.125 C51.68581543 91.14401367 50.93413086 91.16302734 50.15966797 91.18261719 C47.66891314 91.24330664 45.17880282 91.28226281 42.6875 91.3125 C41.89577393 91.32579346 41.10404785 91.33908691 40.28833008 91.3527832 C33.71262284 91.36034544 27.73357408 91.308251 22.73461914 86.55493164 C19.87888136 82.91909867 19.79162514 79.36892597 19.94921875 74.8828125 C19.95629349 74.11444061 19.96336823 73.34606873 19.97065735 72.55441284 C19.99847704 70.11858583 20.06118398 67.68512296 20.125 65.25 C20.1500993 63.59117922 20.17290961 61.93232212 20.19335938 60.2734375 C20.24826182 56.22305802 20.33444093 52.17442873 20.4375 48.125 C19.34284424 48.14594727 18.24818848 48.16689453 17.12036133 48.18847656 C13.0483922 48.26102709 8.97647989 48.30685409 4.90405273 48.34472656 C3.14353825 48.36480786 1.38309018 48.39207879 -0.37719727 48.42675781 C-2.91178802 48.47543112 -5.44549495 48.49800305 -7.98046875 48.515625 C-8.76399216 48.53627014 -9.54751556 48.55691528 -10.3547821 48.57818604 C-14.11104369 48.57971882 -16.29191781 48.29818254 -19.48706055 46.25317383 C-25.55004563 40.03613571 -25.01981768 33.40554795 -24.9375 25.1875 C-24.94910156 24.03314453 -24.96070313 22.87878906 -24.97265625 21.68945312 C-24.95111444 15.43155736 -24.74667407 10.58250874 -21.5625 5.125 C-15.05966888 -0.36627961 -8.08979027 -0.0458865 0 0 Z " fill="#0253B0" transform="translate(77.5625,70.875)"/>
<path d="M0 0 C0 0.99 0 1.98 0 3 C-1.34578125 3.31130859 -1.34578125 3.31130859 -2.71875 3.62890625 C-28.9344804 10.10159175 -52.88020148 24.1892057 -68 47 C-74.12887077 57.27045101 -74.99099161 69.39076213 -73 81 C-72.04376826 84.5806721 -70.72824209 87.72543604 -69 91 C-68.57332031 91.80953125 -68.14664063 92.6190625 -67.70703125 93.453125 C-62.66806808 101.69163547 -54.94140279 106.7915488 -47 112 C-46.67 112 -46.34 112 -46 112 C-46.56847656 111.5875 -47.13695312 111.175 -47.72265625 110.75 C-58.18023144 102.9286416 -64.87733843 94.80955642 -68 82 C-69.21295869 67.62784994 -67.20659249 56.09705387 -58.16015625 44.4296875 C-55.21172229 41.11336575 -52.05945249 37.9082127 -48 36 C-47.01 36.33 -46.02 36.66 -45 37 C-46.051875 37.928125 -46.051875 37.928125 -47.125 38.875 C-55.04807792 46.86579654 -57.96207126 55.96207187 -58.3125 66.9375 C-58.07537116 77.34482138 -54.61666862 85.93177702 -48 94 C-40.56848317 100.77613896 -31.62616442 104.95324273 -22.5703125 109.1171875 C-18.7971584 110.90010647 -16.04514568 112.2706167 -14 116 C-13.09761253 118.70716242 -12.88148698 120.23776768 -12.90234375 123.01171875 C-12.90717773 124.14770508 -12.90717773 124.14770508 -12.91210938 125.30664062 C-12.92467773 126.48516602 -12.92467773 126.48516602 -12.9375 127.6875 C-12.94201172 128.48478516 -12.94652344 129.28207031 -12.95117188 130.10351562 C-12.9629415 132.06904257 -12.98087652 134.03453085 -13 136 C-37.57733387 135.4603779 -66.18173858 124.92873823 -84 108 C-94.44404123 96.98466079 -99.60935702 84.02314607 -99.24609375 68.8515625 C-97.69519897 50.88087698 -87.03240877 36.62081602 -73.70703125 25.1171875 C-68.75498109 21.24415548 -63.51160787 18.00808021 -58 15 C-57.38302246 14.66081543 -56.76604492 14.32163086 -56.13037109 13.97216797 C-38.89133006 4.70100734 -19.5734144 -0.31068912 0 0 Z " fill="#035DB8" transform="translate(104,24)"/>
<path d="M0 0 C1.78854373 -0.01656961 3.57702097 -0.04387313 5.36523438 -0.08203125 C7.94972926 -0.1368582 10.53267738 -0.15867929 13.11767578 -0.17333984 C13.9136618 -0.19600922 14.70964783 -0.21867859 15.52975464 -0.24203491 C19.5591429 -0.22673789 21.38811438 0.06175697 24.80786133 2.38256836 C27.2960539 6.06502066 27.57645923 9.04529195 27.59033203 13.35400391 C27.61019669 14.11430405 27.63006134 14.87460419 27.65052795 15.65794373 C27.68758416 17.25879868 27.71295083 18.85996211 27.72729492 20.46118164 C27.75045595 22.90918076 27.81086357 25.3541041 27.87744141 27.80126953 C27.90892396 29.36047172 27.93829288 30.91971833 27.96533203 32.47900391 C27.98184311 33.20825577 27.99835419 33.93750763 28.0153656 34.68885803 C28.03794752 38.52003217 27.66182032 41.02236012 25.81298828 44.35009766 C19.49585835 44.37548014 13.1787416 44.39297823 6.86157227 44.4050293 C4.71312977 44.41005395 2.56469068 44.41687474 0.41625977 44.42553711 C-2.67416222 44.43768443 -5.76453894 44.44334471 -8.85498047 44.44775391 C-9.81349411 44.45291519 -10.77200775 44.45807648 -11.75956726 44.46339417 C-12.66012344 44.4634697 -13.56067963 44.46354523 -14.48852539 44.46362305 C-15.67100105 44.46695396 -15.67100105 44.46695396 -16.87736511 44.47035217 C-19.39121027 44.33946581 -21.73311349 43.89830662 -24.18701172 43.35009766 C-24.98911984 36.98456758 -25.36957824 30.7636251 -25.37451172 24.35009766 C-25.38675781 23.51220703 -25.39900391 22.67431641 -25.41162109 21.81103516 C-25.42677514 15.28469166 -25.37351647 8.17139411 -21.24951172 2.85009766 C-15.49584257 -1.334389 -6.85052441 0.04653376 0 0 Z " fill="#6CC318" transform="translate(122.18701171875,27.64990234375)"/>
<path d="M0 0 C0.78815598 -0.0033284 1.57631195 -0.0066568 2.38835144 -0.01008606 C4.06040868 -0.01515969 5.73247609 -0.01749425 7.40454102 -0.01733398 C9.95931835 -0.01951321 12.51365895 -0.03764382 15.06835938 -0.05664062 C16.69140477 -0.05957593 18.31445222 -0.06155981 19.9375 -0.0625 C21.08301079 -0.07327827 21.08301079 -0.07327827 22.25166321 -0.08427429 C29.43633179 -0.05345439 29.43633179 -0.05345439 32.16796875 2.16796875 C35.030869 6.60817875 35.5520924 10.13311556 35.56640625 15.359375 C35.56927643 16.02710434 35.57214661 16.69483368 35.57510376 17.38279724 C35.57713335 18.78539892 35.57168121 20.18802962 35.55908203 21.59057617 C35.54298472 23.72834854 35.55897909 25.86423813 35.578125 28.00195312 C35.57614286 29.37109789 35.5722998 30.74024149 35.56640625 32.109375 C35.56302246 33.34373291 35.55963867 34.57809082 35.55615234 35.84985352 C35.02309647 40.40630783 33.367786 42.9681515 30.16796875 46.16796875 C24.57838759 48.13811872 18.13170925 47.43619114 12.29296875 47.48046875 C11.02582031 47.50947266 9.75867188 47.53847656 8.453125 47.56835938 C-3.19411079 47.64796719 -3.19411079 47.64796719 -7.83203125 43.16796875 C-9.5196196 39.79279206 -8.97356483 35.96941276 -8.96484375 32.2578125 C-8.96580048 31.37517227 -8.9667572 30.49253204 -8.96774292 29.58314514 C-8.96842394 27.71615528 -8.9665751 25.84916306 -8.96240234 23.98217773 C-8.95704665 21.11371587 -8.96235324 18.24541014 -8.96875 15.37695312 C-8.96808933 13.5664059 -8.9668084 11.75585878 -8.96484375 9.9453125 C-8.96686798 9.08179672 -8.96889221 8.21828094 -8.97097778 7.32859802 C-8.93906492 -0.71298384 -7.37719802 0.01066522 0 0 Z " fill="#63BF1B" transform="translate(156.83203125,71.83203125)"/>
<path d="M0 0 C-0.70125 0.61875 -1.4025 1.2375 -2.125 1.875 C-10.04807792 9.86579654 -12.96207126 18.96207187 -13.3125 29.9375 C-13.07537116 40.34482138 -9.61666862 48.93177702 -3 57 C4.43151683 63.77613896 13.37383558 67.95324273 22.4296875 72.1171875 C26.2028416 73.90010647 28.95485432 75.2706167 31 79 C31.90238747 81.70716242 32.11851302 83.23776768 32.09765625 86.01171875 C32.09443359 86.76904297 32.09121094 87.52636719 32.08789062 88.30664062 C32.07532227 89.48516602 32.07532227 89.48516602 32.0625 90.6875 C32.05798828 91.48478516 32.05347656 92.28207031 32.04882812 93.10351562 C32.0370585 95.06904257 32.01912348 97.03453085 32 99 C21.22239042 98.76336586 11.29499394 95.91835079 1 93 C1 92.67 1 92.34 1 92 C6.899555 91.80969177 12.08088459 92.24705934 17.8359375 93.5625 C20.12211122 94.09907858 20.12211122 94.09907858 23 94 C24.68236471 94.62599617 26.3523962 95.28752268 28 96 C28 96.66 28 97.32 28 98 C28.99 98 29.98 98 31 98 C30.85834107 95.60385425 30.71181159 93.20817103 30.5625 90.8125 C30.52318359 90.13896484 30.48386719 89.46542969 30.44335938 88.77148438 C30.21072435 85.10300898 29.82792989 81.58305794 29 78 C28.38125 78.185625 27.7625 78.37125 27.125 78.5625 C25 79 25 79 23 78 C22.67 79.65 22.34 81.3 22 83 C10.32116989 83.3451871 10.32116989 83.3451871 5.9375 81.9375 C2.98544457 80.6772434 2.98544457 80.6772434 0 82 C-0.99 81.01 -1.98 80.02 -3 79 C-2.34 79 -1.68 79 -1 79 C-1 78.34 -1 77.68 -1 77 C-2.11375 76.71125 -3.2275 76.4225 -4.375 76.125 C-8 75 -8 75 -10 73 C-9.67 72.01 -9.34 71.02 -9 70 C-6.03 71.98 -3.06 73.96 0 76 C-1.175625 75.154375 -2.35125 74.30875 -3.5625 73.4375 C-13.49695577 65.90343301 -20.1107443 57.38817856 -23 45 C-24.21295869 30.62784994 -22.20659249 19.09705387 -13.16015625 7.4296875 C-5.05622158 -1.68540719 -5.05622158 -1.68540719 0 0 Z " fill="#0558B3" transform="translate(59,61)"/>
<path d="M0 0 C16.38854182 1.69609747 31.40321641 11.83911579 41.90234375 24.1484375 C49.81912804 34.9105465 56.49103197 48.39432242 56 62 C54.54536519 62.38909985 53.08608793 62.76088029 51.625 63.125 C50.81289062 63.33382812 50.00078125 63.54265625 49.1640625 63.7578125 C48.44992188 63.83773437 47.73578125 63.91765625 47 64 C44.25964731 61.25964731 44.07809993 58.75946863 43.1875 55 C40.23634691 43.41730993 35.49782698 35.51175784 27 27 C26.27554688 26.26394531 25.55109375 25.52789062 24.8046875 24.76953125 C18.17435847 18.43625997 10.88164892 14.64773725 1.875 12.875 C0.59625 12.58625 -0.6825 12.2975 -2 12 C-3.15957207 8.52128379 -2.77456651 7.65780355 -1.5625 4.3125 C-1.13130859 3.10013672 -1.13130859 3.10013672 -0.69140625 1.86328125 C-0.46324219 1.24839844 -0.23507813 0.63351563 0 0 Z " fill="#3597D7" transform="translate(188,16)"/>
<path d="M0 0 C18.96223564 -0.17014967 18.96223564 -0.17014967 27.375 0.25 C28.33148438 0.29640625 29.28796875 0.3428125 30.2734375 0.390625 C33.99853094 1.22316737 36.13683911 2.46814772 39 5 C40.0234375 8.49609375 40.0234375 8.49609375 40.375 12.4375 C40.57222656 14.38462891 40.57222656 14.38462891 40.7734375 16.37109375 C40.95405603 19.26410442 41.05580481 22.10373016 41 25 C24.98886211 25.43933 13.26320149 21.83854711 1 11 C-0.76545777 9.06398887 -2.36708756 7.05280421 -4 5 C-4.99 4.34 -5.98 3.68 -7 3 C-3.535 2.505 -3.535 2.505 0 2 C0 1.34 0 0.68 0 0 Z " fill="#037FCD" transform="translate(68,71)"/>
<path d="M0 0 C1.28652007 2.96045811 0.9793437 4.05456254 -0.1875 7.13671875 C-8.18639437 22.80696655 -18.96543291 35.59200575 -34 45 C-34.91265625 45.58394531 -35.8253125 46.16789062 -36.765625 46.76953125 C-42.32164254 50.17890565 -47.97047904 52.9918319 -54 55.4375 C-54.63510498 55.69668213 -55.27020996 55.95586426 -55.92456055 56.22290039 C-59.2208563 57.50623822 -61.39711625 58 -65 58 C-65 53.38 -65 48.76 -65 44 C-62.855 43.34 -60.71 42.68 -58.5 42 C-36.78944326 34.90273214 -16.04760293 22.32824278 -3.41015625 2.96875 C-2 1 -2 1 0 0 Z " fill="#096FC0" transform="translate(224,95)"/>
<path d="M0 0 C14.08907203 2.23542688 24.45839999 7.78066226 33.17578125 19.23828125 C38.86205811 27.84684172 40.90361256 36.85432521 42 47 C38.59437148 47.77842938 35.49234244 48.09978121 32 48 C31.70867187 46.96101563 31.41734375 45.92203125 31.1171875 44.8515625 C27.58576659 32.65703315 23.76398347 21.49704536 12 15 C8.56819883 13.7545568 5.16132631 12.72876518 1.625 11.82421875 C0.325625 11.41623047 0.325625 11.41623047 -1 11 C-2.31625194 8.36749612 -1.74813658 7.19820944 -1.0625 4.375 C-0.86785156 3.55773438 -0.67320312 2.74046875 -0.47265625 1.8984375 C-0.23869141 0.95871094 -0.23869141 0.95871094 0 0 Z " fill="#359DDE" transform="translate(183,36)"/>
<path d="M0 0 C8.66416115 0.4125791 15.30911493 2.7639307 21.3125 9.25 C26.52279905 15.93655044 28.46880778 22.63372256 29 31 C22.25 33.125 22.25 33.125 20 32 C19.32421875 29.9609375 19.32421875 29.9609375 18.6875 27.375 C16.86209591 21.01787133 14.38102862 16.210809 8.625 12.6875 C5.04845716 11.02255765 1.81556695 9.93442456 -2 9 C-1.34 6.03 -0.68 3.06 0 0 Z " fill="#3B99D0" transform="translate(179,55)"/>
<path d="M0 0 C1.94036908 2.91055362 2.24420642 3.79824729 2.6875 7.0625 C3.68226403 12.32386911 5.33721905 17.2395631 7.1875 22.25 C7.45457764 23.01836182 7.72165527 23.78672363 7.99682617 24.57836914 C10.1108308 30.11733777 12.93709773 33.81446583 18 37 C21.26139352 37.95167379 21.26139352 37.95167379 24 38 C24 38.66 24 39.32 24 40 C20.60418484 40.0291544 17.20840214 40.04685068 13.8125 40.0625 C12.85279297 40.07087891 11.89308594 40.07925781 10.90429688 40.08789062 C9.97294922 40.09111328 9.04160156 40.09433594 8.08203125 40.09765625 C7.22843018 40.10289307 6.3748291 40.10812988 5.49536133 40.11352539 C2.90753253 39.99579323 0.52338047 39.57107044 -2 39 C-2.80210812 32.63446992 -3.18256652 26.41352744 -3.1875 20 C-3.19974609 19.16210938 -3.21199219 18.32421875 -3.22460938 17.4609375 C-3.23779056 11.78423916 -2.67866962 6.44617802 -1 1 C-0.67 0.67 -0.34 0.34 0 0 Z " fill="#058C51" transform="translate(100,32)"/>
<path d="M0 0 C0 0.99 0 1.98 0 3 C-1.34578125 3.31130859 -1.34578125 3.31130859 -2.71875 3.62890625 C-16.41922772 7.01156552 -28.77868714 11.96388256 -40.39672852 20.06713867 C-43.58203266 22.2614593 -46.13710161 23.55565918 -50 24 C-50.33 23.01 -50.66 22.02 -51 21 C-50.525625 20.54625 -50.05125 20.0925 -49.5625 19.625 C-47.90972192 18.06741796 -47.90972192 18.06741796 -47 16 C-48.65 16 -50.3 16 -52 16 C-52.33 15.34 -52.66 14.68 -53 14 C-38.14285714 6 -38.14285714 6 -31 6 C-31 5.34 -31 4.68 -31 4 C-20.46883034 1.41196913 -10.83272413 -0.171948 0 0 Z " fill="#087CCF" transform="translate(104,24)"/>
<path d="M0 0 C1.34936069 3.03227121 0.94741647 4.13848084 -0.2578125 7.3125 C-0.8675951 8.54797256 -1.49049394 9.77704075 -2.125 11 C-2.56972656 11.92425781 -2.56972656 11.92425781 -3.0234375 12.8671875 C-5.09978873 16.96710137 -7.32448857 19.31315462 -11 22 C-12.15906655 23.26118695 -13.28628296 24.5526071 -14.375 25.875 C-21.10042071 33.66771574 -21.10042071 33.66771574 -25 36 C-27.75 35.6875 -27.75 35.6875 -30 35 C-31.8354799 36.33378575 -31.8354799 36.33378575 -33 38 C-34.32 37.01 -35.64 36.02 -37 35 C-35.948125 34.278125 -34.89625 33.55625 -33.8125 32.8125 C-31.52126025 31.17982018 -29.62677882 29.62677882 -27.625 27.625 C-25.37083747 25.37083747 -23.15737849 23.54139454 -20.625 21.625 C-13.56879826 16.19265926 -8.39360841 10.48185073 -3.48046875 3.0390625 C-2 1 -2 1 0 0 Z " fill="#1576BF" transform="translate(224,95)"/>
<path d="M0 0 C3.87485635 -0.08751413 7.74945643 -0.14056435 11.625 -0.1875 C13.26662109 -0.22520508 13.26662109 -0.22520508 14.94140625 -0.26367188 C20.70393343 -0.31605849 25.05481287 -0.3502377 30 3 C31 4 31 4 31.09765625 7.81640625 C31.09098089 9.39846682 31.07901875 10.98051159 31.0625 12.5625 C31.05798828 13.36880859 31.05347656 14.17511719 31.04882812 15.00585938 C31.03700518 17.00393756 31.01906914 19.00197783 31 21 C30.34 20.67 29.68 20.34 29 20 C29 19.34 29 18.68 29 18 C28.40832031 17.7525 27.81664062 17.505 27.20703125 17.25 C24.67315052 15.81488171 23.45680257 14.29713746 21.6875 12 C18.36092746 8.02539385 16.07099834 6.8279181 11 6 C11 5.34 11 4.68 11 4 C7.37 3.34 3.74 2.68 0 2 C0 1.34 0 0.68 0 0 Z " fill="#047ECC" transform="translate(116,113)"/>
<path d="M0 0 C2.1875 0.125 2.1875 0.125 5 1 C6.28167652 2.47392799 7.56005215 3.95481615 8.734375 5.515625 C10.06550896 7.23971356 10.06550896 7.23971356 12.75 8.625 C15 10 15 10 15.8125 12.1875 C15.874375 12.785625 15.93625 13.38375 16 14 C15.34 14 14.68 14 14 14 C14 14.66 14 15.32 14 16 C15.32 15.67 16.64 15.34 18 15 C18 17.64 18 20.28 18 23 C19.32 23.66 20.64 24.32 22 25 C21.67 25.66 21.34 26.32 21 27 C17.42705968 25.67997942 14.36046508 24.10478612 11.1875 22 C10.39730469 21.484375 9.60710938 20.96875 8.79296875 20.4375 C8.20128906 19.963125 7.60960937 19.48875 7 19 C7 18.34 7 17.68 7 17 C6.401875 16.773125 5.80375 16.54625 5.1875 16.3125 C1.64042635 14.18425581 0.44960754 11.22892729 -0.9375 7.4375 C-1 5 -1 5 0.9375 2.6875 C1.618125 2.130625 2.29875 1.57375 3 1 C1.68 1.33 0.36 1.66 -1 2 C-0.67 1.34 -0.34 0.68 0 0 Z " fill="#0458B6" transform="translate(44,110)"/>
<path d="M0 0 C0.66 0 1.32 0 2 0 C2 0.66 2 1.32 2 2 C2.66 2 3.32 2 4 2 C5.296875 3.72265625 5.296875 3.72265625 6.75 6.0625 C9.18643124 9.87317447 11.8002353 13.2033267 14.8984375 16.4921875 C16 18 16 18 16 21 C23.26 21 30.52 21 38 21 C32.96448393 24.35701071 27.10171808 23.36905905 21.1875 23.375 C19.91583984 23.39949219 18.64417969 23.42398438 17.33398438 23.44921875 C5.64438531 23.48595924 5.64438531 23.48595924 1 19 C-0.65497356 15.69005287 -0.10084335 12.00877 -0.0625 8.375 C-0.05798828 7.57320313 -0.05347656 6.77140625 -0.04882812 5.9453125 C-0.03703168 3.96350994 -0.01909605 1.98174567 0 0 Z " fill="#0D913B" transform="translate(148,96)"/>
<path d="M0 0 C2.80568007 0.35299229 3.80381345 0.76935446 5.66796875 2.9609375 C6.42013672 4.15589844 6.42013672 4.15589844 7.1875 5.375 C7.69667969 6.16648437 8.20585937 6.95796875 8.73046875 7.7734375 C10 10 10 10 11 13 C10.649375 13.5775 10.29875 14.155 9.9375 14.75 C8.50010458 18.199749 9.81519037 20.57028792 11 24 C11.33 24.99 11.66 25.98 12 27 C11.67 27.66 11.34 28.32 11 29 C10.01 28.67 9.02 28.34 8 28 C8.33 27.01 8.66 26.02 9 25 C7.68 25.33 6.36 25.66 5 26 C4.73445312 25.25234375 4.46890625 24.5046875 4.1953125 23.734375 C3.84210938 22.74953125 3.48890625 21.7646875 3.125 20.75 C2.77695313 19.77546875 2.42890625 18.8009375 2.0703125 17.796875 C1.08490429 15.06124102 1.08490429 15.06124102 -0.1328125 12.828125 C-1 11 -1 11 -1 8 C-1.66 8 -2.32 8 -3 8 C-2.37240135 5.07120629 -1.41377341 2.63904371 0 0 Z " fill="#3098DC" transform="translate(210,52)"/>
<path d="M0 0 C4.17882671 2.56428003 7.12505529 5.01930733 10 9 C9.01 9 8.02 9 7 9 C6.67 9.66 6.34 10.32 6 11 C5.9175 10.21625 5.835 9.4325 5.75 8.625 C5.5025 7.75875 5.255 6.8925 5 6 C3.68352881 5.30062468 2.34977849 4.63270867 1 4 C0.25 1.875 0.25 1.875 0 0 Z M-16 4 C-8.57142857 5 -8.57142857 5 -5 6 C-5 6.66 -5 7.32 -5 8 C-2.36 8.33 0.28 8.66 3 9 C2.01 9.33 1.02 9.66 0 10 C0 10.66 0 11.32 0 12 C1.98 11.67 3.96 11.34 6 11 C5.34 12.98 4.68 14.96 4 17 C4.66 17 5.32 17 6 17 C7.00904375 19.2463236 8.0073602 21.49643937 9 23.75 C9.28617188 24.38421875 9.57234375 25.0184375 9.8671875 25.671875 C11.36006702 29.08417104 12 31.20781917 12 35 C13.32 34.67 14.64 34.34 16 34 C16 34.99 16 35.98 16 37 C16.99 37.495 16.99 37.495 18 38 C18.33 36.68 18.66 35.36 19 34 C18.34 33.67 17.68 33.34 17 33 C16 30 16 30 17 27 C16.34 26.67 15.68 26.34 15 26 C15.66 24.68 16.32 23.36 17 22 C19.62587906 24.62587906 19.85778351 26.77281623 20.6875 30.375 C20.95949219 31.51710938 21.23148438 32.65921875 21.51171875 33.8359375 C22 37 22 37 21 41 C18.03 41 15.06 41 12 41 C11.70867187 39.96101563 11.41734375 38.92203125 11.1171875 37.8515625 C7.5013063 25.36537903 3.64616799 15.04642097 -8 8 C-10.65627498 6.76657215 -13.19253055 5.86776329 -16 5 C-16 4.67 -16 4.34 -16 4 Z " fill="#3C93C7" transform="translate(203,43)"/>
<path d="M0 0 C0.66 0.33 1.32 0.66 2 1 C1.67 1.33 1.34 1.66 1 2 C0.4063556 6.7102277 0.36471039 10.02721279 3 14.0625 C3.66 14.701875 4.32 15.34125 5 16 C5.66 15.34 6.32 14.68 7 14 C7 15.32 7 16.64 7 18 C7.66 18 8.32 18 9 18 C9.125 24.75 9.125 24.75 8 27 C8.60760482 29.3494053 9.27129528 31.68529088 10 34 C11.32 34.33 12.64 34.66 14 35 C14 35.66 14 36.32 14 37 C14.639375 37.144375 15.27875 37.28875 15.9375 37.4375 C18 38 18 38 19 39 C20.68183948 39.23287008 22.3712416 39.41264166 24.0625 39.5625 C24.98160156 39.64628906 25.90070313 39.73007813 26.84765625 39.81640625 C27.91306641 39.90728516 27.91306641 39.90728516 29 40 C29.33 39.34 29.66 38.68 30 38 C30 38.66 30 39.32 30 40 C34.95 40.66 39.9 41.32 45 42 C45 42.33 45 42.66 45 43 C37.08 43 29.16 43 21 43 C21 42.34 21 41.68 21 41 C20.175 41.144375 19.35 41.28875 18.5 41.4375 C13.25294345 40.78161793 10.45158598 37.88401208 7 34 C5.08467088 30.71507845 3.80682466 27.33551763 2.5625 23.75 C2.22541016 22.87214844 1.88832031 21.99429688 1.54101562 21.08984375 C-0.70783308 14.93367676 -2.30240043 8.60494751 -2 2 C-1.34 1.34 -0.68 0.68 0 0 Z " fill="#58AD2E" transform="translate(103,29)"/>
<path d="M0 0 C1.98 0 3.96 0 6 0 C8.1103435 4.27884606 8.24128739 8.13864142 8.125 12.8125 C8.11597656 13.50537109 8.10695313 14.19824219 8.09765625 14.91210938 C8.07426157 16.60822395 8.03839641 18.30415871 8 20 C7.01 20 6.02 20 5 20 C4.67 19.34 4.34 18.68 4 18 C1.08333333 16.75 1.08333333 16.75 -2 16 C-2.66 16.33 -3.32 16.66 -4 17 C-4.99 16.34 -5.98 15.68 -7 15 C-4.66785852 13.79371992 -2.50357861 12.8345262 0 12 C-1.32 11.34 -2.64 10.68 -4 10 C-4 9.01 -4 8.02 -4 7 C-4.66 7 -5.32 7 -6 7 C-6 6.34 -6 5.68 -6 5 C-4.35 4.67 -2.7 4.34 -1 4 C-0.67 2.68 -0.34 1.36 0 0 Z " fill="#0352AF" transform="translate(82,139)"/>
<path d="M0 0 C-1.65 0.33 -3.3 0.66 -5 1 C-4.67 1.99 -4.34 2.98 -4 4 C-2.741875 3.649375 -1.48375 3.29875 -0.1875 2.9375 C4.58292307 1.84647264 8.65280202 2.2513782 13.46875 2.83984375 C16.67601247 3.04277239 19.09609834 2.33422509 22 1 C19.33997295 4.14977932 15.95272949 5.73269787 12.3125 7.5 C11.68617676 7.80752197 11.05985352 8.11504395 10.41455078 8.43188477 C-1.06013084 14 -1.06013084 14 -7 14 C-7 9.38 -7 4.76 -7 0 C-3.86650268 -1.04449911 -3.01031744 -0.93423645 0 0 Z " fill="#0A55A2" transform="translate(166,139)"/>
<path d="M0 0 C0.99 0.33 1.98 0.66 3 1 C2.29875 1.61875 1.5975 2.2375 0.875 2.875 C-8.15147248 11.97862182 -10.13764031 21.78496682 -10.125 34.0625 C-10.10025257 36.70910029 -10.05468674 39.35376931 -10 42 C-12.27474277 38.58788584 -12.56629644 36.3431471 -13.125 32.3125 C-13.29257812 31.13300781 -13.46015625 29.95351562 -13.6328125 28.73828125 C-13.75398438 27.83464844 -13.87515625 26.93101563 -14 26 C-14.66 26.33 -15.32 26.66 -16 27 C-16.66 26.67 -17.32 26.34 -18 26 C-17.37046953 17.81610389 -12.539618 10.80340933 -7 5 C-4.72843297 3.05509637 -2.57584889 1.57412988 0 0 Z " fill="#10569F" transform="translate(56,60)"/>
<path d="M0 0 C0 0.66 0 1.32 0 2 C0.99 2 1.98 2 3 2 C9.4375 15.78125 9.4375 15.78125 9 23 C5.04 23.495 5.04 23.495 1 24 C-0.76615118 19.29026351 -1.48594831 14.96916636 -2 10 C-1.34 10 -0.68 10 0 10 C-1.00445663 7.75928906 -1.87754985 6.12245015 -3.625 4.375 C-4.07875 3.92125 -4.5325 3.4675 -5 3 C-5 2.34 -5 1.68 -5 1 C-3 0 -3 0 0 0 Z " fill="#2B95E0" transform="translate(234,54)"/>
<path d="M0 0 C1.8022149 -0.01653706 3.60436482 -0.04379756 5.40625 -0.08203125 C8.00392704 -0.13688488 10.60006345 -0.15868834 13.19824219 -0.17333984 C14.00050232 -0.19600922 14.80276245 -0.21867859 15.6293335 -0.24203491 C19.75872029 -0.22649191 21.51914309 0.03369188 24.98120117 2.49682617 C27.31034916 5.8487228 27.55171268 7.48357079 27.45214844 11.52587891 C27.43603516 12.6828125 27.41992188 13.83974609 27.40332031 15.03173828 C27.34047852 16.82901367 27.34047852 16.82901367 27.27636719 18.66259766 C27.25380859 19.88011719 27.23125 21.09763672 27.20800781 22.35205078 C27.14917249 25.35265248 27.06700859 28.35074562 26.96386719 31.35009766 C26.30386719 31.35009766 25.64386719 31.35009766 24.96386719 31.35009766 C24.93413818 30.44300049 24.93413818 30.44300049 24.90380859 29.51757812 C24.8080042 26.75301256 24.69855164 23.98914592 24.58886719 21.22509766 C24.55792969 20.27376953 24.52699219 19.32244141 24.49511719 18.34228516 C24.28639673 13.33299417 23.90881354 9.04643152 21.96386719 4.35009766 C20.72636719 4.41197266 20.72636719 4.41197266 19.46386719 4.47509766 C15.96386719 4.35009766 15.96386719 4.35009766 12.46386719 3.35009766 C4.47394934 1.1906604 -4.33059907 1.39904218 -12.03613281 4.35009766 C-12.36613281 4.02009766 -12.69613281 3.69009766 -13.03613281 3.35009766 C-13.36613281 4.67009766 -13.69613281 5.99009766 -14.03613281 7.35009766 C-15.02613281 7.35009766 -16.01613281 7.35009766 -17.03613281 7.35009766 C-17.03613281 6.69009766 -17.03613281 6.03009766 -17.03613281 5.35009766 C-17.69613281 5.35009766 -18.35613281 5.35009766 -19.03613281 5.35009766 C-15.38857168 -2.18819536 -7.61579607 0.05125217 0 0 Z " fill="#82C625" transform="translate(122.0361328125,27.64990234375)"/>
<path d="M0 0 C0 0.99 0 1.98 0 3 C-1.34578125 3.31130859 -1.34578125 3.31130859 -2.71875 3.62890625 C-16.50247311 7.03211888 -28.85887843 12.05184169 -40.57250977 20.1550293 C-44.71588128 23 -44.71588128 23 -48 23 C-47.67 21.68 -47.34 20.36 -47 19 C-45.68 19.33 -44.36 19.66 -43 20 C-43 19.34 -43 18.68 -43 18 C-41.25318707 17.01515892 -39.5024149 16.03733813 -37.75 15.0625 C-36.77546875 14.51722656 -35.8009375 13.97195312 -34.796875 13.41015625 C-32.46389591 12.23389165 -30.54649238 11.47898309 -28 11 C-28 10.34 -28 9.68 -28 9 C-26.02 8.67 -24.04 8.34 -22 8 C-22 7.34 -22 6.68 -22 6 C-24.97 5.67 -27.94 5.34 -31 5 C-21.42881324 0.21440662 -10.53359141 -0.16719986 0 0 Z " fill="#166BAB" transform="translate(104,24)"/>
<path d="M0 0 C1.9375 0.625 1.9375 0.625 4 2 C4.38133299 3.9914056 4.71325582 5.99279077 5 8 C5.98020375 9.0194119 6.97803008 10.02246356 8 11 C8 12.32 8 13.64 8 15 C8.86625 15.1546875 8.86625 15.1546875 9.75 15.3125 C12 16 12 16 13.9375 17.625 C15.95286327 19.27273436 15.95286327 19.27273436 18.625 18.8125 C21.15020365 18.14323449 21.15020365 18.14323449 23 16 C28.29577465 15.43661972 28.29577465 15.43661972 30.875 17.5 C31.24625 17.995 31.6175 18.49 32 19 C32 18.34 32 17.68 32 17 C32.66 17.33 33.32 17.66 34 18 C33.67 19.32 33.34 20.64 33 22 C25.08 22 17.16 22 9 22 C9 20.02 9 18.04 9 16 C8.01 15.67 7.02 15.34 6 15 C3.95703125 12.49609375 3.95703125 12.49609375 1.8125 9.4375 C0.73935547 7.91962891 0.73935547 7.91962891 -0.35546875 6.37109375 C-0.89816406 5.58863281 -1.44085938 4.80617188 -2 4 C-1.34 2.68 -0.68 1.36 0 0 Z " fill="#31A435" transform="translate(154,96)"/>
<path d="M0 0 C3.12857014 1.3881735 5.28189174 3.01101878 7.6875 5.4375 C8.28949219 6.03433594 8.89148438 6.63117187 9.51171875 7.24609375 C11 9 11 9 12 12 C11.67 12.66 11.34 13.32 11 14 C8.16301941 14.59485077 5.85384517 15.05765344 3 15 C1.1875 13.6875 1.1875 13.6875 0 12 C-0.99 11.34 -1.98 10.68 -3 10 C-7 5.54285714 -7 5.54285714 -7 2 C-6.030625 1.855625 -5.06125 1.71125 -4.0625 1.5625 C-1.13513227 1.32437659 -1.13513227 1.32437659 0 0 Z " fill="#319BE1" transform="translate(218,32)"/>
<path d="M0 0 C4.01231707 1.59580793 8.0130921 3.21665253 12 4.875 C13.19625 5.36742187 14.3925 5.85984375 15.625 6.3671875 C19.7588248 8.36711663 22.92628669 10.19011798 25.3046875 14.19921875 C26.27390114 18.10329841 26.21226938 21.80817829 26.125 25.8125 C26.11597656 26.60076172 26.10695313 27.38902344 26.09765625 28.20117188 C26.07422504 30.13424666 26.03835838 32.0671638 26 34 C15.22239042 33.76336586 5.29499394 30.91835079 -5 28 C-5 27.67 -5 27.34 -5 27 C0.899555 26.80969177 6.08088459 27.24705934 11.8359375 28.5625 C14.12211122 29.09907858 14.12211122 29.09907858 17 29 C18.68236471 29.62599617 20.3523962 30.28752268 22 31 C22 31.66 22 32.32 22 33 C22.99 33 23.98 33 25 33 C24.9123127 30.62337178 24.80536886 28.25016873 24.6875 25.875 C24.66494141 25.20984375 24.64238281 24.5446875 24.61914062 23.859375 C24.36906118 19.22153806 23.6699741 15.82604537 21 12 C18.58715978 10.61667694 16.56490831 9.63094476 14 8.6875 C13.3709375 8.43677734 12.741875 8.18605469 12.09375 7.92773438 C9.42009314 6.87130004 6.72718439 5.90906146 4 5 C4 4.34 4 3.68 4 3 C2.68 2.34 1.36 1.68 0 1 C0 0.67 0 0.34 0 0 Z " fill="#124988" transform="translate(65,126)"/>
<path d="M0 0 C0.78815598 -0.0033284 1.57631195 -0.0066568 2.38835144 -0.01008606 C4.06040868 -0.01515969 5.73247609 -0.01749425 7.40454102 -0.01733398 C9.95931835 -0.01951321 12.51365895 -0.03764382 15.06835938 -0.05664062 C16.69140477 -0.05957593 18.31445222 -0.06155981 19.9375 -0.0625 C21.08301079 -0.07327827 21.08301079 -0.07327827 22.25166321 -0.08427429 C29.43633179 -0.05345439 29.43633179 -0.05345439 32.16796875 2.16796875 C35.030869 6.60817875 35.5520924 10.13311556 35.56640625 15.359375 C35.56927643 16.02710434 35.57214661 16.69483368 35.57510376 17.38279724 C35.57713335 18.78539892 35.57168121 20.18802962 35.55908203 21.59057617 C35.54298472 23.72834854 35.55897909 25.86423813 35.578125 28.00195312 C35.57614286 29.37109789 35.5722998 30.74024149 35.56640625 32.109375 C35.56302246 33.34373291 35.55963867 34.57809082 35.55615234 35.84985352 C35.13960014 39.41045795 34.35713903 41.35117397 32.16796875 44.16796875 C31.50796875 44.16796875 30.84796875 44.16796875 30.16796875 44.16796875 C30.16796875 43.50796875 30.16796875 42.84796875 30.16796875 42.16796875 C30.82796875 42.16796875 31.48796875 42.16796875 32.16796875 42.16796875 C33.33565154 36.94105951 33.35181763 31.93976017 33.35546875 26.60546875 C33.37383789 25.18717773 33.37383789 25.18717773 33.39257812 23.74023438 C33.39451172 22.82822266 33.39644531 21.91621094 33.3984375 20.9765625 C33.40254639 20.14954834 33.40665527 19.32253418 33.41088867 18.47045898 C33.14444115 15.94496489 32.38605538 14.37407195 31.16796875 12.16796875 C30.63494205 9.81870292 30.22850886 7.46884258 29.828125 5.09375 C29.61027344 4.45824219 29.39242187 3.82273437 29.16796875 3.16796875 C25.5986949 1.9782108 22.36849903 2.0431872 18.65625 2.0703125 C17.56391304 2.07243492 17.56391304 2.07243492 16.44950867 2.07460022 C14.12645336 2.08019216 11.80349487 2.09274313 9.48046875 2.10546875 C7.90429827 2.11048479 6.32812627 2.11504752 4.75195312 2.11914062 C0.89058777 2.13015895 -2.97070533 2.14741801 -6.83203125 2.16796875 C-7.16203125 3.81796875 -7.49203125 5.46796875 -7.83203125 7.16796875 C-8.16203125 7.16796875 -8.49203125 7.16796875 -8.83203125 7.16796875 C-8.87457481 5.16842129 -8.87283908 3.16755239 -8.83203125 1.16796875 C-6.82070654 -0.84335596 -2.75809124 0.00398738 0 0 Z " fill="#7FBB47" transform="translate(156.83203125,71.83203125)"/>
<path d="M0 0 C-2.37203986 0.94881594 -4.74421585 1.89726558 -7.1171875 2.84375 C-9.02112977 3.6073908 -10.9222545 4.3780988 -12.8203125 5.15625 C-13.70460938 5.5171875 -14.58890625 5.878125 -15.5 6.25 C-16.3146875 6.58515625 -17.129375 6.9203125 -17.96875 7.265625 C-20 8 -20 8 -22 8 C-22.309375 9.36125 -22.309375 9.36125 -22.625 10.75 C-24.33986372 14.80331425 -26.16134608 15.96316323 -30 18 C-30.99 18 -31.98 18 -33 18 C-33 19.65 -33 21.3 -33 23 C-34.98 23.99 -34.98 23.99 -37 25 C-37.99 24.01 -38.98 23.02 -40 22 C-40.66 22.66 -41.32 23.32 -42 24 C-41.8984375 22.296875 -41.8984375 22.296875 -41 20 C-38.89770275 18.25098135 -36.89089448 16.74920174 -34.625 15.25 C-33.73941406 14.63318359 -33.73941406 14.63318359 -32.8359375 14.00390625 C-28.40492629 11 -28.40492629 11 -25 11 C-25 10.01 -25 9.02 -25 8 C-22.64885408 6.86830299 -20.29440665 5.74458619 -17.9375 4.625 C-16.95233398 4.14933594 -16.95233398 4.14933594 -15.94726562 3.6640625 C-4.80936545 -1.60312182 -4.80936545 -1.60312182 0 0 Z " fill="#0B6AB2" transform="translate(73,30)"/>
<path d="M0 0 C1.76025107 2.6403766 3.46070032 5.29852805 5.125 8 C5.66382813 8.86625 6.20265625 9.7325 6.7578125 10.625 C8 13 8 13 8 16 C7.62488281 15.51789063 7.24976563 15.03578125 6.86328125 14.5390625 C3.89180434 10.87149654 1.73662186 8.25381167 -3 7 C-2.2575 6.38125 -2.2575 6.38125 -1.5 5.75 C0.43386092 3.87797662 0.43386092 3.87797662 0 0 Z M-9 4 C-7 6 -7 6 -7 10 C-6.01 10 -5.02 10 -4 10 C-4 9.34 -4 8.68 -4 8 C-2.35 8.33 -0.7 8.66 1 9 C0 12 0 12 -2 13 C-1.08395677 18.74115405 -1.08395677 18.74115405 2.3125 23.1875 C3.199375 23.785625 4.08625 24.38375 5 25 C5.763125 25.804375 6.52625 26.60875 7.3125 27.4375 C10.57795568 30.55107402 14.11774794 32.73615575 18 35 C17.01 35.33 16.02 35.66 15 36 C5.20955626 30.59074029 -4.23285645 21.75704573 -8 11 C-8.52609834 8.63480577 -8.79805611 6.42332662 -9 4 Z " fill="#0B4E98" transform="translate(46,102)"/>
<path d="M0 0 C1.32 0.33 2.64 0.66 4 1 C4 1.99 4 2.98 4 4 C7.465 3.505 7.465 3.505 11 3 C11.33 4.32 11.66 5.64 12 7 C11.34 7 10.68 7 10 7 C10.33 8.65 10.66 10.3 11 12 C6.62065881 11.48041715 2.31196609 10.94324258 -2 10 C-1.125 2.25 -1.125 2.25 0 0 Z " fill="#339FE2" transform="translate(189,17)"/>
<path d="M0 0 C0.27070313 0.54785156 0.54140625 1.09570312 0.8203125 1.66015625 C5.71380735 11.36612782 9.87997172 18.86151942 19 25 C15.29229733 26.23590089 14.48973028 25.49559869 11 24 C10.13375 23.835 9.2675 23.67 8.375 23.5 C6 23 6 23 3 21 C3 18.66666667 3 16.33333333 3 14 C2.32529711 11.65058815 1.50404007 9.38609598 0.66796875 7.08984375 C-0.1102982 4.65491498 -0.24590894 2.54105906 0 0 Z " fill="#0A52A4" transform="translate(30,105)"/>
<path d="M0 0 C0.66 0.33 1.32 0.66 2 1 C1.67 1.33 1.34 1.66 1 2 C0.4063556 6.7102277 0.36471039 10.02721279 3 14.0625 C3.66 14.701875 4.32 15.34125 5 16 C5.66 15.34 6.32 14.68 7 14 C7 15.32 7 16.64 7 18 C7.66 18 8.32 18 9 18 C9.28571429 25.42857143 9.28571429 25.42857143 7 29 C1.77939598 25.51959732 0.67496918 18.83518144 -1 13 C-1.68089852 9.33529139 -2.26941888 5.73041528 -2 2 C-1.34 1.34 -0.68 0.68 0 0 Z " fill="#5BB929" transform="translate(103,29)"/>
<path d="M0 0 C0 0.66 0 1.32 0 2 C0.66 2 1.32 2 2 2 C1.67 2.99 1.34 3.98 1 5 C-1.88515146 5.06709655 -4.49803253 5.12210019 -7.3125 4.4375 C-11.22305064 3.80089873 -15.14089436 4.08306374 -19 5 C-19.33 5.66 -19.66 6.32 -20 7 C-20 5.35 -20 3.7 -20 2 C-13.8783987 -0.43127427 -6.31595792 -3.15797896 0 0 Z " fill="#036BC6" transform="translate(181,138)"/>
<path d="M0 0 C4.3049777 -0.07451364 8.60960734 -0.12877223 12.91503906 -0.16479492 C14.37767075 -0.17982196 15.84025782 -0.20024955 17.30273438 -0.22631836 C19.4128728 -0.26297267 21.52241226 -0.27978676 23.6328125 -0.29296875 C24.90012207 -0.3086792 26.16743164 -0.32438965 27.47314453 -0.34057617 C31.34944957 0.03374513 33.71295564 0.94085374 37 3 C39.51762922 6.77644382 39.484693 10.04580668 39.6875 14.4375 C39.73455078 15.20126953 39.78160156 15.96503906 39.83007812 16.75195312 C40.02512043 20.42578286 40.02510578 23.43525808 39 27 C38.34 27 37.68 27 37 27 C36.67 19.74 36.34 12.48 36 5 C30.49992141 2.24996071 28.62611771 1.61166918 22.8515625 1.48828125 C22.19417084 1.47033005 21.53677917 1.45237885 20.85946655 1.43388367 C18.78137428 1.38015563 16.70350653 1.34600875 14.625 1.3125 C13.20700024 1.27929347 11.78902999 1.24480076 10.37109375 1.20898438 C6.9142782 1.12445349 3.45738362 1.05746432 0 1 C0 0.67 0 0.34 0 0 Z " fill="#166AA6" transform="translate(110,112)"/>
<path d="M0 0 C0 0.33 0 0.66 0 1 C-2.31 1.33 -4.62 1.66 -7 2 C-7.33 3.65 -7.66 5.3 -8 7 C-8.66 7 -9.32 7 -10 7 C-13.10553778 16.9611589 -13.66668516 26.65574634 -14 37 C-14.33 37 -14.66 37 -15 37 C-15.08760181 32.81263332 -15.14059435 28.62550469 -15.1875 24.4375 C-15.21263672 23.25607422 -15.23777344 22.07464844 -15.26367188 20.85742188 C-15.31729672 14.47606582 -15.28804036 9.5572513 -12 4 C-7.98398287 0.51945182 -5.29038037 -0.50384575 0 0 Z " fill="#13589C" transform="translate(68,72)"/>
<path d="M0 0 C0.33 0 0.66 0 1 0 C1.92489536 7.81290652 2.00046104 15.33943947 1.5625 23.1875 C1.51029297 24.23486328 1.45808594 25.28222656 1.40429688 26.36132812 C1.27638659 28.90790567 1.13918344 31.45401371 1 34 C6.28 34.66 11.56 35.32 17 36 C17 36.33 17 36.66 17 37 C15.10424749 37.02721176 13.20838021 37.04649136 11.3125 37.0625 C10.25675781 37.07410156 9.20101562 37.08570313 8.11328125 37.09765625 C5.27589738 37.00865425 2.7561081 36.64939838 0 36 C-0.81641631 29.58530042 -1.15451189 23.33810468 -1.125 16.875 C-1.12886719 16.02035156 -1.13273437 15.16570313 -1.13671875 14.28515625 C-1.12924052 9.41682856 -0.81946468 4.79972168 0 0 Z " fill="#167D5E" transform="translate(98,35)"/>
<path d="M0 0 C2.62587906 2.62587906 2.85778351 4.77281623 3.6875 8.375 C3.95949219 9.51710938 4.23148438 10.65921875 4.51171875 11.8359375 C4.95830381 14.72980868 4.99155833 16.29816991 4 19 C1.66705225 19.04241723 -0.66702567 19.04092937 -3 19 C-4 18 -4 18 -4.0625 15.4375 C-4.041875 14.633125 -4.02125 13.82875 -4 13 C-3.01 12.67 -2.02 12.34 -1 12 C-1 12.99 -1 13.98 -1 15 C-0.34 15.33 0.32 15.66 1 16 C1.33 14.68 1.66 13.36 2 12 C1.34 11.67 0.68 11.34 0 11 C-1 8 -1 8 0 5 C-0.66 4.67 -1.32 4.34 -2 4 C-1.34 2.68 -0.68 1.36 0 0 Z " fill="#3796D3" transform="translate(220,65)"/>
<path d="M0 0 C1.20681097 2.89774959 1.00903639 3.97572265 -0.109375 6.98046875 C-0.65078125 8.03878906 -1.1921875 9.09710938 -1.75 10.1875 C-2.28109375 11.25355469 -2.8121875 12.31960937 -3.359375 13.41796875 C-5 16 -5 16 -8 17 C-8.99 17 -9.98 17 -11 17 C-10.71125 16.443125 -10.4225 15.88625 -10.125 15.3125 C-8.96336569 13.03702163 -8.96336569 13.03702163 -8.1875 10.6875 C-6.41897067 6.68503888 -4.01951028 2.00975514 0 0 Z " fill="#1E7FCB" transform="translate(224,95)"/>
<path d="M0 0 C6.47481068 0.48866496 6.47481068 0.48866496 8.7121582 2.66699219 C10.3591131 5.65055636 10.3429392 7.68013415 10.29296875 11.078125 C10.28330078 12.23828125 10.27363281 13.3984375 10.26367188 14.59375 C10.23853516 15.8003125 10.21339844 17.006875 10.1875 18.25 C10.17396484 19.47203125 10.16042969 20.6940625 10.14648438 21.953125 C10.1111398 24.96919498 10.0617956 27.98437487 10 31 C9.34 31 8.68 31 8 31 C7.98018066 30.39526855 7.96036133 29.79053711 7.93994141 29.16748047 C7.84413701 26.40291491 7.73468445 23.63904826 7.625 20.875 C7.5940625 19.92367187 7.563125 18.97234375 7.53125 17.9921875 C7.32440646 13.02794261 7.09282347 8.59258485 5 4 C2.50626957 1.63637584 2.50626957 1.63637584 0 0 Z " fill="#8BC238" transform="translate(139,28)"/>
<path d="M0 0 C-0.70125 0.61875 -1.4025 1.2375 -2.125 1.875 C-8.34026876 8.14339071 -11.61044246 15.38474325 -13 24 C-13.33 24 -13.66 24 -14 24 C-13.9278125 23.31292969 -13.855625 22.62585938 -13.78125 21.91796875 C-13.6884375 21.01691406 -13.595625 20.11585937 -13.5 19.1875 C-13.36078125 17.84751953 -13.36078125 17.84751953 -13.21875 16.48046875 C-12.95607599 13.91694901 -12.95607599 13.91694901 -13 11 C-14.485 13.475 -14.485 13.475 -16 16 C-16.66 15.67 -17.32 15.34 -18 15 C-6.76433121 -2.25477707 -6.76433121 -2.25477707 0 0 Z " fill="#115394" transform="translate(59,61)"/>
<path d="M0 0 C1.56394167 2.34591251 2.6243912 4.33744331 3.75 6.875 C5.87571449 11.15004802 8.00558103 13.36368348 12 16 C15.22433127 16.873938 15.22433127 16.873938 18 17 C18 17.66 18 18.32 18 19 C15.03 19 12.06 19 9 19 C9 18.01 9 17.02 9 16 C6.69 15.67 4.38 15.34 2 15 C2 13.68 2 12.36 2 11 C1.34 10.67 0.68 10.34 0 10 C0 6.7 0 3.4 0 0 Z " fill="#14903E" transform="translate(106,53)"/>
<path d="M0 0 C0.33 0 0.66 0 1 0 C1.33 11.55 1.66 23.1 2 35 C2.66 35.33 3.32 35.66 4 36 C4.66 37.32 5.32 38.64 6 40 C8.97 40 11.94 40 15 40 C14.67 40.99 14.34 41.98 14 43 C12.59983914 42.82307336 11.20465411 42.60664718 9.8125 42.375 C9.03519531 42.25898438 8.25789063 42.14296875 7.45703125 42.0234375 C3.95518954 40.56480073 1.883467 38.21546906 0 35 C-0.43134092 32.04090852 -0.59135423 29.69192307 -0.48828125 26.7578125 C-0.48120651 25.98944061 -0.47413177 25.22106873 -0.46684265 24.42941284 C-0.43902296 21.99358583 -0.37631602 19.56012296 -0.3125 17.125 C-0.2874007 15.46617922 -0.26459039 13.80732212 -0.24414062 12.1484375 C-0.18923818 8.09805802 -0.10305907 4.04942873 0 0 Z " fill="#0D4287" transform="translate(98,119)"/>
<path d="M0 0 C0.33 0 0.66 0 1 0 C1.03738281 1.12019531 1.07476562 2.24039063 1.11328125 3.39453125 C1.17894257 4.8672209 1.24538986 6.33987566 1.3125 7.8125 C1.33505859 8.55048828 1.35761719 9.28847656 1.38085938 10.04882812 C1.5671544 14.1651391 1.5671544 14.1651391 3.16796875 17.88671875 C7.74202466 20.66626232 12.22591269 21.2454675 17.4921875 21.1953125 C18.69101563 21.18886719 19.88984375 21.18242188 21.125 21.17578125 C22.3625 21.15902344 23.6 21.14226562 24.875 21.125 C26.13570312 21.11597656 27.39640625 21.10695313 28.6953125 21.09765625 C31.7970704 21.07415808 34.89843652 21.04130334 38 21 C32.96448393 24.35701071 27.10171808 23.36905905 21.1875 23.375 C19.91583984 23.39949219 18.64417969 23.42398438 17.33398438 23.44921875 C5.64438531 23.48595924 5.64438531 23.48595924 1 19 C-0.65497356 15.69005287 -0.10084335 12.00877 -0.0625 8.375 C-0.05798828 7.57320313 -0.05347656 6.77140625 -0.04882812 5.9453125 C-0.03703168 3.96350994 -0.01909605 1.98174567 0 0 Z " fill="#2E8052" transform="translate(148,96)"/>
<path d="M0 0 C7.68490153 5.0940919 7.68490153 5.0940919 9 8.875 C9 9.57625 9 10.2775 9 11 C8.34 11 7.68 11 7 11 C7.99 15.29 8.98 19.58 10 24 C12.64 24 15.28 24 18 24 C18 22.35 18 20.7 18 19 C18.33 19 18.66 19 19 19 C19 20.98 19 22.96 19 25 C17.54536519 25.38909985 16.08608793 25.76088029 14.625 26.125 C13.40683594 26.43824219 13.40683594 26.43824219 12.1640625 26.7578125 C11.44992188 26.83773437 10.73578125 26.91765625 10 27 C7.3290833 24.3290833 6.9701792 21.43602744 6.125 17.875 C4.69432954 12.13385348 2.84662604 7.184926 0 2 C0 1.34 0 0.68 0 0 Z " fill="#388AC2" transform="translate(225,53)"/>
<path d="M0 0 C0.66 0 1.32 0 2 0 C1.97880415 4.86444646 1.71917634 8.06701447 -1.3125 12 C-8.80566095 17.19169009 -21.34716442 15.12560568 -30 15 C-29.67 14.34 -29.34 13.68 -29 13 C-16.625 12.505 -16.625 12.505 -4 12 C-3.67 11.01 -3.34 10.02 -3 9 C-2.34 8.67 -1.68 8.34 -1 8 C-0.53476937 6.10466658 -0.53476937 6.10466658 -0.375 3.9375 C-0.25125 2.638125 -0.1275 1.33875 0 0 Z " fill="#084275" transform="translate(147,147)"/>
<path d="M0 0 C4.08327357 -0.0580772 8.16644083 -0.09362249 12.25 -0.125 C13.98830078 -0.15013672 13.98830078 -0.15013672 15.76171875 -0.17578125 C16.87675781 -0.18222656 17.99179688 -0.18867187 19.140625 -0.1953125 C20.68024902 -0.21102295 20.68024902 -0.21102295 22.25097656 -0.22705078 C25.06867185 0.00567183 26.68414513 0.39543389 29 2 C29.33 2.99 29.66 3.98 30 5 C29.01 5.33 28.02 5.66 27 6 C26.34 5.34 25.68 4.68 25 4 C23.68 4.99 22.36 5.98 21 7 C18 3.25 18 3.25 18 1 C12.06 1.33 6.12 1.66 0 2 C0 1.34 0 0.68 0 0 Z " fill="#81D026" transform="translate(158,73)"/>
<path d="M0 0 C2.31 0.33 4.62 0.66 7 1 C7 1.66 7 2.32 7 3 C8.32 3 9.64 3 11 3 C10.34 4.98 9.68 6.96 9 9 C5.85262818 8.30058404 2.97411124 7.23921302 0 6 C0 4.02 0 2.04 0 0 Z " fill="#359FE3" transform="translate(180,56)"/>
<path d="M0 0 C32.01135751 -0.30422621 32.01135751 -0.30422621 38 5 C37.67 5.66 37.34 6.32 37 7 C35.125 6.6875 35.125 6.6875 33 6 C32.34 5.01 31.68 4.02 31 3 C27.7998894 2.48745872 27.7998894 2.48745872 24.0234375 2.48828125 C22.99556625 2.46135445 22.99556625 2.46135445 21.94692993 2.43388367 C19.75634941 2.37966292 17.5659881 2.34584947 15.375 2.3125 C13.89059441 2.27933706 12.40621779 2.24484835 10.921875 2.20898438 C7.28146088 2.12393185 3.64097056 2.05717644 0 2 C0 1.34 0 0.68 0 0 Z " fill="#1C77AB" transform="translate(69,71)"/>
<path d="M0 0 C5.899555 -0.19030823 11.08088459 0.24705934 16.8359375 1.5625 C19.12211122 2.09907858 19.12211122 2.09907858 22 2 C23.68236471 2.62599617 25.3523962 3.28752268 27 4 C27 4.33 27 4.66 27 5 C17.12277749 5.59066447 9.3352222 4.13506713 0 1 C0 0.67 0 0.34 0 0 Z " fill="#0B4D9A" transform="translate(60,153)"/>
<path d="M0 0 C2.64 0 5.28 0 8 0 C8.3403125 0.9590625 8.3403125 0.9590625 8.6875 1.9375 C9.85250896 4.27193661 9.85250896 4.27193661 12.625 4.75 C13.40875 4.8325 14.1925 4.915 15 5 C15.33 8.3 15.66 11.6 16 15 C15.01 13.68 14.02 12.36 13 11 C13.33 10.34 13.66 9.68 14 9 C13.34 8.67 12.68 8.34 12 8 C11.01 7.34 10.02 6.68 9 6 C8.01 6.495 8.01 6.495 7 7 C6.01 6.34 5.02 5.68 4 5 C4.66 5 5.32 5 6 5 C4.60804085 2.2160817 2.84424221 2.02101003 0 1 C0 0.67 0 0.34 0 0 Z " fill="#0788D3" transform="translate(92,73)"/>
<path d="M0 0 C0.99 0 1.98 0 3 0 C3.66 3.3 4.32 6.6 5 10 C5.66 9.67 6.32 9.34 7 9 C7.66 9.66 8.32 10.32 9 11 C6.69 11.66 4.38 12.32 2 13 C-0.63994297 10.36005703 -1.22395215 8.43966299 -1.25 4.8125 C-1 1 -1 1 0 0 Z " fill="#069151" transform="translate(150,103)"/>
<path d="M0 0 C0 4.93096947 -3.74248755 7.53772963 -7 11 C-7.93779297 12.01707031 -7.93779297 12.01707031 -8.89453125 13.0546875 C-13.7674748 18.1558952 -19.10958568 22.13743323 -25 26 C-25.66 25.67 -26.32 25.34 -27 25 C-25.54634731 23.82750647 -24.08692581 22.66216184 -22.625 21.5 C-21.81289062 20.8503125 -21.00078125 20.200625 -20.1640625 19.53125 C-18 18 -18 18 -16 18 C-15.67 17.01 -15.34 16.02 -15 15 C-13.3984375 13.45703125 -13.3984375 13.45703125 -11.375 11.8125 C-7.12846703 8.22517612 -3.54762209 4.26823283 0 0 Z " fill="#105793" transform="translate(215,114)"/>
<path d="M0 0 C6.52307692 -0.36923077 6.52307692 -0.36923077 8.9375 1.5 C9.288125 1.995 9.63875 2.49 10 3 C10 2.34 10 1.68 10 1 C10.66 1.33 11.32 1.66 12 2 C11.67 3.32 11.34 4.64 11 6 C4.9981863 6.21824777 -0.19233704 5.5056904 -6 4 C-5.67 3.34 -5.34 2.68 -5 2 C-3.68 2 -2.36 2 -1 2 C-0.67 1.34 -0.34 0.68 0 0 Z " fill="#42AC2C" transform="translate(176,112)"/>
<path d="M0 0 C0.78503906 0.48210937 1.57007813 0.96421875 2.37890625 1.4609375 C7.88582417 4.7718452 12.74624908 7.53635617 19 9 C19.99 9.66 20.98 10.32 22 11 C18.2619978 11.96120056 15.7407025 11.80880054 12 11 C11.01 11.495 11.01 11.495 10 12 C9.01 11.01 8.02 10.02 7 9 C7.66 9 8.32 9 9 9 C9 8.34 9 7.68 9 7 C7.329375 6.566875 7.329375 6.566875 5.625 6.125 C2 5 2 5 0 3 C0 2.01 0 1.02 0 0 Z " fill="#09509F" transform="translate(49,131)"/>
<path d="M0 0 C4.82829428 1.48700714 7.7487769 4.21283256 11.3125 7.625 C12.13717773 8.3984375 12.13717773 8.3984375 12.97851562 9.1875 C14.32498054 10.45200618 15.66332535 11.72514922 17 13 C16.67 13.66 16.34 14.32 16 15 C13.36 12.36 10.72 9.72 8 7 C5.69 7.66 3.38 8.32 1 9 C0.34 7.68 -0.32 6.36 -1 5 C0.65 4.34 2.3 3.68 4 3 C2.68 2.34 1.36 1.68 0 1 C0 0.67 0 0.34 0 0 Z " fill="#378DC7" transform="translate(212,26)"/>
<path d="M0 0 C0.66 0.33 1.32 0.66 2 1 C1.27683594 2.12148438 1.27683594 2.12148438 0.5390625 3.265625 C-0.09257812 4.25046875 -0.72421875 5.2353125 -1.375 6.25 C-2.31472656 7.71179688 -2.31472656 7.71179688 -3.2734375 9.203125 C-4.65134852 11.43521615 -5.88312642 13.63087422 -7 16 C-7.66 16 -8.32 16 -9 16 C-9.60987167 12.60214357 -9.35450669 10.56386103 -7.51171875 7.6328125 C-2.64157997 1.32078999 -2.64157997 1.32078999 0 0 Z " fill="#0B62B2" transform="translate(21,60)"/>
<path d="M0 0 C0.639375 0.61875 1.27875 1.2375 1.9375 1.875 C5.31992167 4.22198647 7.82831195 4.83045853 11.81640625 5.5078125 C14.12064526 6.02719374 15.93606139 6.86740784 18 8 C16.02 8.99 16.02 8.99 14 10 C14 10.66 14 11.32 14 12 C10.79302377 10.52493771 8.1090904 8.71194552 5.3125 6.5625 C4.52488281 5.96566406 3.73726562 5.36882812 2.92578125 4.75390625 C1 3 1 3 0 0 Z " fill="#0B4C98" transform="translate(19,129)"/>
<path d="M0 0 C4.3177458 0.50797009 8.03302114 1.19682779 12 3 C9.35261084 4.4606285 8.10551666 5 5 5 C5 4.01 5 3.02 5 2 C3.68 1.67 2.36 1.34 1 1 C0.34 4.3 -0.32 7.6 -1 11 C0.464375 11.12375 1.92875 11.2475 3.4375 11.375 C5.93359375 11.5859375 5.93359375 11.5859375 8 12 C8.33 12.66 8.66 13.32 9 14 C5.37 13.34 1.74 12.68 -2 12 C-3.15957207 8.52128379 -2.77456651 7.65780355 -1.5625 4.3125 C-1.13130859 3.10013672 -1.13130859 3.10013672 -0.69140625 1.86328125 C-0.46324219 1.24839844 -0.23507813 0.63351563 0 0 Z " fill="#3D8BBB" transform="translate(188,16)"/>
<path d="M0 0 C0.33 0.66 0.66 1.32 1 2 C0.67 2.66 0.34 3.32 0 4 C0.66 4 1.32 4 2 4 C1.67 5.32 1.34 6.64 1 8 C0.401875 7.773125 -0.19625 7.54625 -0.8125 7.3125 C-1.8953125 7.1578125 -1.8953125 7.1578125 -3 7 C-4.77190909 8.35444301 -4.77190909 8.35444301 -6 10 C-7.32 9.01 -8.64 8.02 -10 7 C-6.7 4.69 -3.4 2.38 0 0 Z " fill="#0C7CD0" transform="translate(197,123)"/>
<path d="M0 0 C1.9375 0.75 1.9375 0.75 4 2 C4.75 4.125 4.75 4.125 5 6 C6.32 6.33 7.64 6.66 9 7 C9 7.66 9 8.32 9 9 C9.928125 9.1546875 9.928125 9.1546875 10.875 9.3125 C13 10 13 10 15 13 C12.02240241 13.25982527 10.41967181 13.25558391 7.83203125 11.6796875 C3.81196649 8.0872892 1.07513419 5.51006273 0 0 Z " fill="#40B231" transform="translate(108,57)"/>
<path d="M0 0 C0.66 0 1.32 0 2 0 C2 0.99 2 1.98 2 3 C2.66 3 3.32 3 4 3 C4.33 4.98 4.66 6.96 5 9 C2.69 9 0.38 9 -2 9 C-2.25 3.375 -2.25 3.375 0 0 Z " fill="#2F9BE2" transform="translate(202,76)"/>
<path d="M0 0 C0.33 0 0.66 0 1 0 C1.0744013 4.32328804 1.12871968 8.64623255 1.16479492 12.9699707 C1.17984066 14.43943782 1.20028238 15.90886034 1.22631836 17.37817383 C1.26288955 19.4957177 1.27976801 21.61266565 1.29296875 23.73046875 C1.3086792 25.00301514 1.32438965 26.27556152 1.34057617 27.58666992 C0.97719848 31.22852189 0.24823048 33.13752876 -2 36 C-2.66 36 -3.32 36 -4 36 C-4 35.34 -4 34.68 -4 34 C-3.34 34 -2.68 34 -2 34 C-1.08016408 30.0293204 -0.80911302 26.23837938 -0.68359375 22.16796875 C-0.64169922 20.87568359 -0.59980469 19.58339844 -0.55664062 18.25195312 C-0.51683648 16.89713808 -0.47712409 15.54232033 -0.4375 14.1875 C-0.39426277 12.81313895 -0.35064688 11.43878976 -0.30664062 10.06445312 C-0.2007021 6.70973331 -0.09862811 3.3549414 0 0 Z " fill="#64A841" transform="translate(191,80)"/>
<path d="M0 0 C1.25955231 3.77865693 0.48087189 5.03411786 -0.9375 8.6875 C-1.31777344 9.68136719 -1.69804688 10.67523438 -2.08984375 11.69921875 C-2.39019531 12.45847656 -2.69054688 13.21773437 -3 14 C-3.99 13.67 -4.98 13.34 -6 13 C-6.33 11.02 -6.66 9.04 -7 7 C-6.01 7 -5.02 7 -4 7 C-3.71125 6.21625 -3.4225 5.4325 -3.125 4.625 C-2 2 -2 2 0 0 Z " fill="#095FB9" transform="translate(47,70)"/>
<path d="M0 0 C5.48674718 5.48674718 9.78487316 15.05208264 10.125 22.875 C10.08375 23.57625 10.0425 24.2775 10 25 C8.45921385 22.01559439 7.13026724 18.98992242 5.875 15.875 C5.52179688 15.00617187 5.16859375 14.13734375 4.8046875 13.2421875 C4 11 4 11 4 9 C3.01 9 2.02 9 1 9 C0.67 6.03 0.34 3.06 0 0 Z " fill="#3884BA" transform="translate(233,47)"/>
<path d="M0 0 C0 0.66 0 1.32 0 2 C-1.65532623 3.01866229 -3.32260138 4.01810813 -5 5 C-5.33 5.66 -5.66 6.32 -6 7 C-4.68 7.33 -3.36 7.66 -2 8 C-2.3125 9.9375 -2.3125 9.9375 -3 12 C-3.99 12.33 -4.98 12.66 -6 13 C-6 12.01 -6 11.02 -6 10 C-6.66 10 -7.32 10 -8 10 C-8 9.01 -8 8.02 -8 7 C-8.66 6.67 -9.32 6.34 -10 6 C-8.71283353 4.99421411 -7.42011342 3.99553202 -6.125 3 C-5.40570313 2.443125 -4.68640625 1.88625 -3.9453125 1.3125 C-2 0 -2 0 0 0 Z " fill="#1272BA" transform="translate(205,117)"/>
<path d="M0 0 C0.99 0.33 1.98 0.66 3 1 C1.625 3.5 1.625 3.5 0 6 C-0.66 6 -1.32 6 -2 6 C-2.33 6.99 -2.66 7.98 -3 9 C-4.65 8.67 -6.3 8.34 -8 8 C-7.25 6.0625 -7.25 6.0625 -6 4 C-3.875 3.25 -3.875 3.25 -2 3 C-2 2.34 -2 1.68 -2 1 C-1.34 0.67 -0.68 0.34 0 0 Z " fill="#0F81D4" transform="translate(207,116)"/>
<path d="M0 0 C0.33 0.66 0.66 1.32 1 2 C1.66 2 2.32 2 3 2 C3 3.65 3 5.3 3 7 C1.02 7.99 1.02 7.99 -1 9 C-1.99 8.01 -2.98 7.02 -4 6 C-4.66 6.66 -5.32 7.32 -6 8 C-5.65120368 4.74456771 -4.97866739 3.98126893 -2.4375 1.75 C-1.633125 1.1725 -0.82875 0.595 0 0 Z " fill="#0774CA" transform="translate(37,46)"/>
<path d="M0 0 C0.99 0 1.98 0 3 0 C3 1.32 3 2.64 3 4 C2.34 4 1.68 4 1 4 C1.33 7.3 1.66 10.6 2 14 C1.01 13.01 0.02 12.02 -1 11 C-1 10.01 -1 9.02 -1 8 C-1.66 8 -2.32 8 -3 8 C-2.37240135 5.07120629 -1.41377341 2.63904371 0 0 Z " fill="#319DE4" transform="translate(210,52)"/>
<path d="M0 0 C4.18423892 3.50897269 8.19588166 7.08060535 12 11 C11.15695313 10.78537109 11.15695313 10.78537109 10.296875 10.56640625 C7.95454547 9.98879098 5.60582341 9.45716693 3.25 8.9375 C2.45078125 8.76089844 1.6515625 8.58429688 0.828125 8.40234375 C0.22484375 8.26957031 -0.3784375 8.13679687 -1 8 C-0.4740625 7.13375 -0.4740625 7.13375 0.0625 6.25 C1.14917407 3.64198224 0.93065133 2.60582371 0 0 Z " fill="#0A51A3" transform="translate(37,120)"/>
<path d="M0 0 C4.77949439 -0.19117978 8.62325105 -0.03569718 13 2 C14.375 4.125 14.375 4.125 15 6 C14.01 6.33 13.02 6.66 12 7 C11.67 6.01 11.34 5.02 11 4 C7.37 3.34 3.74 2.68 0 2 C0 1.34 0 0.68 0 0 Z " fill="#056AC0" transform="translate(116,113)"/>
<path d="M0 0 C0.33 0 0.66 0 1 0 C1.3690205 10.55808656 1.3690205 10.55808656 -1 15 C-1.66 14.34 -2.32 13.68 -3 13 C-3 12.01 -3 11.02 -3 10 C-3.66 10 -4.32 10 -5 10 C-4.67 9.01 -4.34 8.02 -4 7 C-3.34 6.67 -2.68 6.34 -2 6 C-1.27306096 4.02111039 -0.60183749 2.02045442 0 0 Z " fill="#5AB729" transform="translate(190,99)"/>
<path d="M0 0 C0.66 0.33 1.32 0.66 2 1 C0.90630138 2.81883578 -0.20031392 4.62990978 -1.3125 6.4375 C-1.92738281 7.44683594 -2.54226562 8.45617187 -3.17578125 9.49609375 C-5 12 -5 12 -8 13 C-6.76398107 6.81990533 -4.69904339 4.1882778 0 0 Z " fill="#056EC6" transform="translate(28,53)"/>
<path d="M0 0 C5.48046884 1.21788197 10.32190027 3.60227926 15.3125 6.125 C16.38113281 6.66382813 17.44976562 7.20265625 18.55078125 7.7578125 C19.76314453 8.37269531 19.76314453 8.37269531 21 9 C17.54251127 10.15249624 17.15867385 9.9065289 14.0234375 8.41796875 C13.270625 8.06283203 12.5178125 7.70769531 11.7421875 7.34179688 C10.57042969 6.77041992 10.57042969 6.77041992 9.375 6.1875 C8.19164062 5.63352539 8.19164062 5.63352539 6.984375 5.06835938 C1.13454175 2.2690835 1.13454175 2.2690835 0 0 Z " fill="#0D4485" transform="translate(33,141)"/>
<path d="M0 0 C0.33 0 0.66 0 1 0 C1.33 3.63 1.66 7.26 2 11 C1.67 11 1.34 11 1 11 C0.67 16.28 0.34 21.56 0 27 C-0.33 27 -0.66 27 -1 27 C-1.02932572 23.81251971 -1.04690739 20.62507472 -1.0625 17.4375 C-1.07087891 16.54224609 -1.07925781 15.64699219 -1.08789062 14.72460938 C-1.10629571 9.70002057 -0.86266398 4.95182709 0 0 Z " fill="#1A6B54" transform="translate(98,35)"/>
<path d="M0 0 C1.48046875 1.12109375 1.48046875 1.12109375 3 3 C3.36328125 5.84765625 3.36328125 5.84765625 3.3125 9.0625 C3.30863281 10.12597656 3.30476562 11.18945312 3.30078125 12.28515625 C3 15 3 15 1 17 C0.00749455 11.29309366 -0.10477512 5.78591511 0 0 Z " fill="#6FC32B" transform="translate(188,84)"/>
<path d="M0 0 C0.66 0.33 1.32 0.66 2 1 C2.12375 1.78375 2.2475 2.5675 2.375 3.375 C2.76817349 6.14830482 2.76817349 6.14830482 5.0625 7.8125 C5.701875 8.204375 6.34125 8.59625 7 9 C0.25 9.125 0.25 9.125 -2 8 C-2.20086443 4.28400809 -2.1519437 3.22791555 0 0 Z " fill="#088F63" transform="translate(101,61)"/>
<path d="M0 0 C0.33 0 0.66 0 1 0 C1.13277344 0.86882812 1.26554688 1.73765625 1.40234375 2.6328125 C1.66724609 4.36144531 1.66724609 4.36144531 1.9375 6.125 C2.11152344 7.26195313 2.28554687 8.39890625 2.46484375 9.5703125 C2.95589266 12.71732669 3.47018719 15.85930783 4 19 C3.34 19 2.68 19 2 19 C2 18.34 2 17.68 2 17 C1.34 17 0.68 17 0 17 C0 11.39 0 5.78 0 0 Z " fill="#50AA32" transform="translate(148,79)"/>
<path d="M0 0 C0.66 0 1.32 0 2 0 C2.33 2.64 2.66 5.28 3 8 C5.31 8 7.62 8 10 8 C10.33 7.01 10.66 6.02 11 5 C10.67 6.65 10.34 8.3 10 10 C7.69 10.33 5.38 10.66 3 11 C2.49384702 9.73160474 1.99530901 8.46016898 1.5 7.1875 C1.2215625 6.47980469 0.943125 5.77210937 0.65625 5.04296875 C0 3 0 3 0 0 Z " fill="#4895BE" transform="translate(197,77)"/>
<path d="M0 0 C1.25348607 2.95106435 1.01044806 3.97406463 -0.21484375 7.015625 C-1.06755859 8.61664063 -1.06755859 8.61664063 -1.9375 10.25 C-2.50339844 11.32765625 -3.06929687 12.4053125 -3.65234375 13.515625 C-4.09707031 14.33546875 -4.54179687 15.1553125 -5 16 C-5.33 15.34 -5.66 14.68 -6 14 C-5.00390625 11.6171875 -5.00390625 11.6171875 -3.5625 8.875 C-2.85287109 7.50988281 -2.85287109 7.50988281 -2.12890625 6.1171875 C-1.75636719 5.41851562 -1.38382813 4.71984375 -1 4 C-1.99 4.33 -2.98 4.66 -4 5 C-2.25 1.125 -2.25 1.125 0 0 Z " fill="#2970A4" transform="translate(224,95)"/>
<path d="M0 0 C1.98 0.99 1.98 0.99 4 2 C4 5.3 4 8.6 4 12 C3.01 12.495 3.01 12.495 2 13 C1.34 8.71 0.68 4.42 0 0 Z " fill="#7EC83E" transform="translate(187,75)"/>
<path d="M0 0 C0.61875 0.33 1.2375 0.66 1.875 1 C3.91018344 2.14193235 3.91018344 2.14193235 6 2 C6.93065133 4.60582371 7.14917407 5.64198224 6.0625 8.25 C5.711875 8.8275 5.36125 9.405 5 10 C1.64085078 7.76056718 1.18318364 6.73157917 0 3 C0 2.01 0 1.02 0 0 Z " fill="#4AB92A" transform="translate(105,48)"/>
<path d="M0 0 C2.31 0.33 4.62 0.66 7 1 C7 1.33 7 1.66 7 2 C5.02 2 3.04 2 1 2 C1.58803797 5.02419525 2.22678118 8.01758453 3 11 C1.35 10.67 -0.3 10.34 -2 10 C-1.34 6.7 -0.68 3.4 0 0 Z " fill="#3F94C5" transform="translate(183,36)"/>
<path d="M0 0 C4.55384615 -0.36923077 4.55384615 -0.36923077 6.8125 1.5 C7.204375 1.995 7.59625 2.49 8 3 C7.01 3.495 7.01 3.495 6 4 C6.66 4.33 7.32 4.66 8 5 C7.34 6.32 6.68 7.64 6 9 C4.99712471 7.68969568 3.99777175 6.37669473 3 5.0625 C2.443125 4.33160156 1.88625 3.60070312 1.3125 2.84765625 C0 1 0 1 0 0 Z " fill="#0856AF" transform="translate(14,121)"/>
<path d="M0 0 C1.134375 0.020625 2.26875 0.04125 3.4375 0.0625 C0.4375 2.0625 0.4375 2.0625 -1.5625 2.0625 C-1.8925 5.0325 -2.2225 8.0025 -2.5625 11.0625 C-3.2225 10.7325 -3.8825 10.4025 -4.5625 10.0625 C-4.58939216 8.58343108 -4.60884621 7.10422517 -4.625 5.625 C-4.63660156 4.80128906 -4.64820313 3.97757812 -4.66015625 3.12890625 C-4.49001835 -0.47121162 -3.73687179 0.06555915 0 0 Z " fill="#75C81F" transform="translate(153.5625,72.9375)"/>
<path d="M0 0 C-1.8125 1.5625 -1.8125 1.5625 -4 3 C-4.99 2.67 -5.98 2.34 -7 2 C-7.33 3.32 -7.66 4.64 -8 6 C-8.99 6 -9.98 6 -11 6 C-11 5.34 -11 4.68 -11 4 C-11.66 3.67 -12.32 3.34 -13 3 C-9.21656826 -0.94792877 -5.07874402 -0.29300446 0 0 Z " fill="#7CCC1A" transform="translate(116,29)"/>
<path d="M0 0 C0.66 0 1.32 0 2 0 C1.65809072 8.00067705 1.65809072 8.00067705 -0.6875 11.5625 C-3.62289441 13.38720463 -5.60543766 13.30859658 -9 13 C-9 12.67 -9 12.34 -9 12 C-7.35 12 -5.7 12 -4 12 C-3.67 11.01 -3.34 10.02 -3 9 C-2.34 8.67 -1.68 8.34 -1 8 C-0.53476937 6.10466658 -0.53476937 6.10466658 -0.375 3.9375 C-0.25125 2.638125 -0.1275 1.33875 0 0 Z " fill="#0F4890" transform="translate(147,147)"/>
<path d="M0 0 C1.9375 0.625 1.9375 0.625 4 2 C4.625 5 4.625 5 5 8 C5.66 8.66 6.32 9.32 7 10 C5.68 9.67 4.36 9.34 3 9 C3 7.68 3 6.36 3 5 C1.35 4.67 -0.3 4.34 -2 4 C-1.34 2.68 -0.68 1.36 0 0 Z " fill="#40AE26" transform="translate(154,96)"/>
<path d="M0 0 C2.44897847 3.67346771 2.31537716 5.66356399 2 10 C1.34 10.66 0.68 11.32 0 12 C-1.17661508 8.32307787 -1.14475933 4.8361222 -1 1 C-0.67 0.67 -0.34 0.34 0 0 Z " fill="#13864C" transform="translate(100,32)"/>
<path d="M0 0 C0.33 0 0.66 0 1 0 C0.50873071 6.36559573 0.00344253 12.69264693 -1 19 C-1.33 19 -1.66 19 -2 19 C-2.05394705 16.39555652 -2.09364469 13.79223002 -2.125 11.1875 C-2.14175781 10.44951172 -2.15851562 9.71152344 -2.17578125 8.95117188 C-2.21074628 5.08753574 -2.19397555 3.29096332 0 0 Z " fill="#135191" transform="translate(30,80)"/>
<path d="M0 0 C2 3.75 2 3.75 2 6 C-0.60582371 6.93065133 -1.64198224 7.14917407 -4.25 6.0625 C-4.8275 5.711875 -5.405 5.36125 -6 5 C-5.67 4.34 -5.34 3.68 -5 3 C-3.02 3.495 -3.02 3.495 -1 4 C-0.67 2.68 -0.34 1.36 0 0 Z " fill="#2A8ED4" transform="translate(241,68)"/>
<path d="M0 0 C2.97 0 5.94 0 9 0 C9 0.99 9 1.98 9 3 C5.7 2.67 2.4 2.34 -1 2 C-0.67 1.34 -0.34 0.68 0 0 Z " fill="#2A7FA9" transform="translate(95,24)"/>
<path d="M0 0 C0 3 0 3 -1 6 C-3.0625 7.1875 -3.0625 7.1875 -5 8 C-5 4 -5 4 -3 1 C-2.01 0.67 -1.02 0.34 0 0 Z " fill="#096AC0" transform="translate(41,59)"/>
<path d="M0 0 C0.556875 0.28875 1.11375 0.5775 1.6875 0.875 C4.08494645 2.0413253 6.51596939 3.0339881 9 4 C9 5.98 9 7.96 9 10 C5.73991357 6.83047153 2.77762123 3.60062011 0 0 Z " fill="#3B8BC3" transform="translate(216,43)"/>
<path d="M0 0 C6.75 0.75 6.75 0.75 9 3 C8.67 3.99 8.34 4.98 8 6 C7.34 6 6.68 6 6 6 C4.98594743 4.67732273 3.98731742 3.34275169 3 2 C2.01 1.34 1.02 0.68 0 0 Z " fill="#8DC634" transform="translate(139,28)"/>
<path d="M0 0 C0.66 0.33 1.32 0.66 2 1 C0.76265016 2.03613033 -0.49044637 3.05347802 -1.75 4.0625 C-2.79414063 4.91521484 -2.79414063 4.91521484 -3.859375 5.78515625 C-6 7 -6 7 -8.265625 6.68359375 C-8.83796875 6.45800781 -9.4103125 6.23242188 -10 6 C-8.3811004 4.96951963 -6.75467511 3.95085322 -5.125 2.9375 C-4.22007812 2.36902344 -3.31515625 1.80054687 -2.3828125 1.21484375 C-1.20332031 0.61349609 -1.20332031 0.61349609 0 0 Z " fill="#1D6BA6" transform="translate(193,124)"/>
<path d="M0 0 C0.33 0 0.66 0 1 0 C1.21192221 5.19209404 0.5912689 9.126739 -1 14 C-1.33 14 -1.66 14 -2 14 C-2.1799928 8.78020872 -1.97094808 4.92737019 0 0 Z " fill="#0967BF" transform="translate(9,80)"/>
<path d="M0 0 C1.875 0.3125 1.875 0.3125 4 1 C4.66 1.99 5.32 2.98 6 4 C3.69 4.33 1.38 4.66 -1 5 C-0.67 3.35 -0.34 1.7 0 0 Z " fill="#0161BF" transform="translate(61,75)"/>
<path d="M0 0 C1.2065625 0.0309375 1.2065625 0.0309375 2.4375 0.0625 C2.4375 1.7125 2.4375 3.3625 2.4375 5.0625 C1.4475 5.3925 0.4575 5.7225 -0.5625 6.0625 C-0.68625 5.423125 -0.81 4.78375 -0.9375 4.125 C-1.246875 3.1040625 -1.246875 3.1040625 -1.5625 2.0625 C-2.2225 1.7325 -2.8825 1.4025 -3.5625 1.0625 C-2.5625 0.0625 -2.5625 0.0625 0 0 Z " fill="#73C323" transform="translate(147.5625,58.9375)"/>
<path d="M0 0 C0 2.97 0 5.94 0 9 C-0.99 8.34 -1.98 7.68 -3 7 C-3.1875 3.875 -3.1875 3.875 -3 1 C-1 0 -1 0 0 0 Z " fill="#025EA7" transform="translate(150,138)"/>
<path d="M0 0 C2.97 0 5.94 0 9 0 C8.67 0.99 8.34 1.98 8 3 C2.25 2.25 2.25 2.25 0 0 Z " fill="#13944A" transform="translate(155,115)"/>
<path d="M0 0 C2.475 0.495 2.475 0.495 5 1 C5 1.99 5 2.98 5 4 C3.35 4.33 1.7 4.66 0 5 C0 3.35 0 1.7 0 0 Z " fill="#028F40" transform="translate(154,109)"/>
<path d="M0 0 C2.9719385 1.12451727 5.33440687 2.22293791 8 4 C7.67 4.66 7.34 5.32 7 6 C5.35 5.67 3.7 5.34 2 5 C2.33 4.34 2.66 3.68 3 3 C2.01 2.01 1.02 1.02 0 0 Z " fill="#379FE4" transform="translate(208,25)"/>
<path d="M0 0 C-1 2 -1 2 -2.84765625 2.6328125 C-3.57855469 2.79523438 -4.30945313 2.95765625 -5.0625 3.125 C-6.16271484 3.37636719 -6.16271484 3.37636719 -7.28515625 3.6328125 C-7.85105469 3.75398437 -8.41695312 3.87515625 -9 4 C-9 3.01 -9 2.02 -9 1 C-6.04335481 -0.4783226 -3.25770263 -0.06032783 0 0 Z " fill="#0552AD" transform="translate(174,146)"/>
<path d="M0 0 C2.31 1.98 4.62 3.96 7 6 C6.01 6.33 5.02 6.66 4 7 C1 5 1 5 0.3125 2.375 C0.209375 1.59125 0.10625 0.8075 0 0 Z " fill="#053F7E" transform="translate(37,120)"/>
<path d="M0 0 C1.9375 0.75 1.9375 0.75 4 2 C4.75 4.125 4.75 4.125 5 6 C4.34 6 3.68 6 3 6 C3 5.34 3 4.68 3 4 C1.35 3.67 -0.3 3.34 -2 3 C-1.34 2.67 -0.68 2.34 0 2 C0 1.34 0 0.68 0 0 Z " fill="#11913A" transform="translate(112,65)"/>
<path d="M0 0 C0.99 0.33 1.98 0.66 3 1 C1.68 2.32 0.36 3.64 -1 5 C-1.99 4.34 -2.98 3.68 -4 3 C-2.1875 1.4375 -2.1875 1.4375 0 0 Z " fill="#2A5C8E" transform="translate(56,60)"/>
</svg>
